{
  "accessors": [
    {
      "bufferView": 3,
      "componentType": 5126,
      "count": 17767,
      "max": [
        0.7393989562988281,
        2.1023237705230713,
        0.428648978471756
      ],
      "min": [
        -0.7390733361244202,
        -0.0022684799041599035,
        -0.1696360558271408
      ],
      "type": "VEC3"
    },
    {
      "bufferView": 3,
      "byteOffset": 213204,
      "componentType": 5126,
      "count": 17767,
      "max": [
        0.9999938011169434,
        0.9999414682388306,
        0.9999998807907104
      ],
      "min": [
        -0.9999937415122986,
        -0.9999949336051941,
        -0.9999974966049194
      ],
      "type": "VEC3"
    },
    {
      "bufferView": 2,
      "componentType": 5126,
      "count": 17767,
      "max": [
        0.982807993888855,
        0.9828190207481384
      ],
      "min": [
        0.015799999237060547,
        0.027701999992132187
      ],
      "type": "VEC2"
    },
    {
      "bufferView": 1,
      "componentType": 5125,
      "count": 88443,
      "type": "SCALAR"
    },
    {
      "bufferView": 3,
      "byteOffset": 426408,
      "componentType": 5126,
      "count": 5742,
      "max": [
        0.7370356321334839,
        2.0370500087738037,
        0.428648978471756
      ],
      "min": [
        -0.7326164841651917,
        -0.0033452881034463644,
        -0.1696360558271408
      ],
      "type": "VEC3"
    },
    {
      "bufferView": 3,
      "byteOffset": 495312,
      "componentType": 5126,
      "count": 5742,
      "max": [
        0.9980289340019226,
        0.998866081237793,
        0.9990644454956055
      ],
      "min": [
        -0.9977439641952515,
        -0.9999964833259583,
        -0.9988561868667603
      ],
      "type": "VEC3"
    },
    {
      "bufferView": 2,
      "byteOffset": 142136,
      "componentType": 5126,
      "count": 5742,
      "max": [
        0.9659370183944702,
        0.9675880074501038
      ],
      "min": [
        0.0,
        0.0
      ],
      "type": "VEC2"
    },
    {
      "bufferView": 1,
      "byteOffset": 353772,
      "componentType": 5125,
      "count": 25506,
      "type": "SCALAR"
    },
    {
      "bufferView": 3,
      "byteOffset": 564216,
      "componentType": 5126,
      "count": 2097,
      "max": [
        0.6299884915351868,
        1.4441215991973877,
        0.10086598247289658
      ],
      "min": [
        0.4310244917869568,
        1.268693447113037,
        -0.32203632593154907
      ],
      "type": "VEC3"
    },
    {
      "bufferView": 3,
      "byteOffset": 589380,
      "componentType": 5126,
      "count": 2097,
      "max": [
        0.9840791821479797,
        0.9962274432182312,
        0.9894605875015259
      ],
      "min": [
        -0.9824693202972412,
        -0.9948474764823914,
        -0.9934321045875549
      ],
      "type": "VEC3"
    },
    {
      "bufferView": 2,
      "byteOffset": 188072,
      "componentType": 5126,
      "count": 2097,
      "max": [
        1.0012359619140625,
        1.0000003576278687
      ],
      "min": [
        -0.00021606686641462147,
        0.0
      ],
      "type": "VEC2"
    },
    {
      "bufferView": 1,
      "byteOffset": 455796,
      "componentType": 5125,
      "count": 5622,
      "type": "SCALAR"
    },
    {
      "bufferView": 3,
      "byteOffset": 614544,
      "componentType": 5126,
      "count": 2257,
      "max": [
        -0.4310246407985687,
        1.444084882736206,
        0.10086631774902344
      ],
      "min": [
        -0.6299885511398315,
        1.2686933279037476,
        -0.3220359683036804
      ],
      "type": "VEC3"
    },
    {
      "bufferView": 3,
      "byteOffset": 641628,
      "componentType": 5126,
      "count": 2257,
      "max": [
        0.9998162388801575,
        0.9991118907928467,
        0.9999368190765381
      ],
      "min": [
        -0.9940211772918701,
        -0.9739322662353516,
        -0.9835138916969299
      ],
      "type": "VEC3"
    },
    {
      "bufferView": 2,
      "byteOffset": 204848,
      "componentType": 5126,
      "count": 2257,
      "max": [
        1.0012359619140625,
        1.0000003576278687
      ],
      "min": [
        -0.00021606686641462147,
        0.0
      ],
      "type": "VEC2"
    },
    {
      "bufferView": 1,
      "byteOffset": 478284,
      "componentType": 5125,
      "count": 6861,
      "type": "SCALAR"
    },
    {
      "bufferView": 5,
      "componentType": 5126,
      "count": 71,
      "max": [
        1.0,
        0.9372239708900452,
        0.7165428996086121,
        0.0,
        0.6542066931724548,
        1.0,
        0.9995684623718262,
        0.0,
        0.9979211091995239,
        1.0,
        1.0,
        0.0,
        0.5559139251708984,
        1.1774001121520996,
        1.653853178024292,
        1.0
      ],
      "min": [
        -0.9999018311500549,
        -0.9372237324714661,
        -0.7524675130844116,
        0.0,
        -0.6856383681297302,
        -0.9987421035766602,
        -0.9999018311500549,
        0.0,
        -0.9964342713356018,
        -1.0,
        -0.31531822681427,
        0.0,
        -0.5571332573890686,
        -2.0949082374572754,
        -0.6110232472419739,
        1.0
      ],
      "type": "MAT4"
    },
    {
      "bufferView": 0,
      "componentType": 5123,
      "count": 17767,
      "type": "VEC4"
    },
    {
      "bufferView": 4,
      "componentType": 5126,
      "count": 17767,
      "max": [
        1.0,
        0.49999091029167175,
        0.32722702622413635,
        0.21620836853981018
      ],
      "min": [
        0.2831723392009735,
        0.0,
        0.0,
        0.0
      ],
      "type": "VEC4"
    },
    {
      "bufferView": 0,
      "byteOffset": 142136,
      "componentType": 5123,
      "count": 5742,
      "type": "VEC4"
    },
    {
      "bufferView": 4,
      "byteOffset": 284272,
      "componentType": 5126,
      "count": 5742,
      "max": [
        1.0,
        0.4998817443847656,
        0.32722702622413635,
        0.1904093623161316
      ],
      "min": [
        0.3035320043563843,
        0.0,
        0.0,
        0.0
      ],
      "type": "VEC4"
    },
    {
      "bufferView": 6,
      "componentType": 5126,
      "count": 1,
      "max": [
        0.0
      ],
      "min": [
        0.0
      ],
      "type": "SCALAR"
    },
    {
      "bufferView": 8,
      "componentType": 5126,
      "count": 1,
      "max": [
        -0.0024415836669504642,
        0.010737469419836998,
        -0.9996510744094849,
        0.024009274318814278
      ],
      "min": [
        -0.0024415836669504642,
        0.010737469419836998,
        -0.9996510744094849,
        0.024009274318814278
      ],
      "type": "VEC4"
    },
    {
      "bufferView": 6,
      "byteOffset": 4,
      "componentType": 5126,
      "count": 1,
      "max": [
        0.0
      ],
      "min": [
        0.0
      ],
      "type": "SCALAR"
    },
    {
      "bufferView": 7,
      "componentType": 5126,
      "count": 1,
      "max": [
        1.000004529953003,
        1.0000001192092896,
        1.0000003576278687
      ],
      "min": [
        1.000004529953003,
        1.0000001192092896,
        1.0000003576278687
      ],
      "type": "VEC3"
    },
    {
      "bufferView": 6,
      "byteOffset": 8,
      "componentType": 5126,
      "count": 1,
      "max": [
        0.0
      ],
      "min": [
        0.0
      ],
      "type": "SCALAR"
    },
    {
      "bufferView": 8,
      "byteOffset": 16,
      "componentType": 5126,
      "count": 1,
      "max": [
        -0.032262902706861496,
        0.0005970554775558412,
        -0.003309311345219612,
        0.9994738101959229
      ],
      "min": [
        -0.032262902706861496,
        0.0005970554775558412,
        -0.003309311345219612,
        0.9994738101959229
      ],
      "type": "VEC4"
    },
    {
      "bufferView": 6,
      "byteOffset": 12,
      "componentType": 5126,
      "count": 1,
      "max": [
        0.0
      ],
      "min": [
        0.0
      ],
      "type": "SCALAR"
    },
    {
      "bufferView": 8,
      "byteOffset": 32,
      "componentType": 5126,
      "count": 1,
      "max": [
        0.5365124940872192,
        -0.013914825394749641,
        -0.022930026054382324,
        0.84346604347229
      ],
      "min": [
        0.5365124940872192,
        -0.013914825394749641,
        -0.022930026054382324,
        0.84346604347229
      ],
      "type": "VEC4"
    },
    {
      "bufferView": 6,
      "byteOffset": 16,
      "componentType": 5126,
      "count": 1,
      "max": [
        0.0
      ],
      "min": [
        0.0
      ],
      "type": "SCALAR"
    },
    {
      "bufferView": 8,
      "byteOffset": 48,
      "componentType": 5126,
      "count": 1,
      "max": [
        -0.16045738756656647,
        -0.06318208575248718,
        0.9798468947410583,
        0.10080443322658539
      ],
      "min": [
        -0.16045738756656647,
        -0.06318208575248718,
        0.9798468947410583,
        0.10080443322658539
      ],
      "type": "VEC4"
    },
    {
      "bufferView": 6,
      "byteOffset": 20,
      "componentType": 5126,
      "count": 1,
      "max": [
        0.0
      ],
      "min": [
        0.0
      ],
      "type": "SCALAR"
    },
    {
      "bufferView": 7,
      "byteOffset": 12,
      "componentType": 5126,
      "count": 1,
      "max": [
        1.0000094175338745,
        1.000000238418579,
        1.000001072883606
      ],
      "min": [
        1.0000094175338745,
        1.000000238418579,
        1.000001072883606
      ],
      "type": "VEC3"
    },
    {
      "bufferView": 6,
      "byteOffset": 24,
      "componentType": 5126,
      "count": 1,
      "max": [
        0.0
      ],
      "min": [
        0.0
      ],
      "type": "SCALAR"
    },
    {
      "bufferView": 8,
      "byteOffset": 64,
      "componentType": 5126,
      "count": 1,
      "max": [
        -0.0030663437210023403,
        -0.0004247019242029637,
        0.0008438585791736841,
        0.9999948740005493
      ],
      "min": [
        -0.0030663437210023403,
        -0.0004247019242029637,
        0.0008438585791736841,
        0.9999948740005493
      ],
      "type": "VEC4"
    },
    {
      "bufferView": 6,
      "byteOffset": 28,
      "componentType": 5126,
      "count": 1,
      "max": [
        0.0
      ],
      "min": [
        0.0
      ],
      "type": "SCALAR"
    },
    {
      "bufferView": 8,
      "byteOffset": 80,
      "componentType": 5126,
      "count": 1,
      "max": [
        0.4581339955329895,
        0.03855548053979874,
        0.11818104982376099,
        0.8801476955413818
      ],
      "min": [
        0.4581339955329895,
        0.03855548053979874,
        0.11818104982376099,
        0.8801476955413818
      ],
      "type": "VEC4"
    },
    {
      "bufferView": 6,
      "byteOffset": 32,
      "componentType": 5126,
      "count": 1,
      "max": [
        0.0
      ],
      "min": [
        0.0
      ],
      "type": "SCALAR"
    },
    {
      "bufferView": 8,
      "byteOffset": 96,
      "componentType": 5126,
      "count": 1,
      "max": [
        -0.002423559082672,
        0.010734649375081062,
        -0.9996511936187744,
        0.024008862674236298
      ],
      "min": [
        -0.002423559082672,
        0.010734649375081062,
        -0.9996511936187744,
        0.024008862674236298
      ],
      "type": "VEC4"
    },
    {
      "bufferView": 6,
      "byteOffset": 36,
      "componentType": 5126,
      "count": 1,
      "max": [
        0.0
      ],
      "min": [
        0.0
      ],
      "type": "SCALAR"
    },
    {
      "bufferView": 7,
      "byteOffset": 24,
      "componentType": 5126,
      "count": 1,
      "max": [
        1.0000075101852417,
        1.0000001192092896,
        1.0000005960464478
      ],
      "min": [
        1.0000075101852417,
        1.0000001192092896,
        1.0000005960464478
      ],
      "type": "VEC3"
    },
    {
      "bufferView": 6,
      "byteOffset": 40,
      "componentType": 5126,
      "count": 1,
      "max": [
        0.0
      ],
      "min": [
        0.0
      ],
      "type": "SCALAR"
    },
    {
      "bufferView": 8,
      "byteOffset": 112,
      "componentType": 5126,
      "count": 1,
      "max": [
        -0.03226955980062485,
        0.0005970552447251976,
        -0.003309995634481311,
        0.9994735717773438
      ],
      "min": [
        -0.03226955980062485,
        0.0005970552447251976,
        -0.003309995634481311,
        0.9994735717773438
      ],
      "type": "VEC4"
    },
    {
      "bufferView": 6,
      "byteOffset": 44,
      "componentType": 5126,
      "count": 1,
      "max": [
        0.0
      ],
      "min": [
        0.0
      ],
      "type": "SCALAR"
    },
    {
      "bufferView": 8,
      "byteOffset": 128,
      "componentType": 5126,
      "count": 1,
      "max": [
        0.5365159511566162,
        -0.013929938897490501,
        -0.022920692339539528,
        0.8434638381004333
      ],
      "min": [
        0.5365159511566162,
        -0.013929938897490501,
        -0.022920692339539528,
        0.8434638381004333
      ],
      "type": "VEC4"
    },
    {
      "bufferView": 6,
      "byteOffset": 48,
      "componentType": 5126,
      "count": 1,
      "max": [
        0.0
      ],
      "min": [
        0.0
      ],
      "type": "SCALAR"
    },
    {
      "bufferView": 8,
      "byteOffset": 144,
      "componentType": 5126,
      "count": 1,
      "max": [
        -0.16053499281406403,
        -0.06433908641338348,
        0.9798135757446289,
        0.10027152299880981
      ],
      "min": [
        -0.16053499281406403,
        -0.06433908641338348,
        0.9798135757446289,
        0.10027152299880981
      ],
      "type": "VEC4"
    },
    {
      "bufferView": 6,
      "byteOffset": 52,
      "componentType": 5126,
      "count": 1,
      "max": [
        0.0
      ],
      "min": [
        0.0
      ],
      "type": "SCALAR"
    },
    {
      "bufferView": 7,
      "byteOffset": 36,
      "componentType": 5126,
      "count": 1,
      "max": [
        1.0000133514404297,
        1.0000005960464478,
        1.0000040531158447
      ],
      "min": [
        1.0000133514404297,
        1.0000005960464478,
        1.0000040531158447
      ],
      "type": "VEC3"
    },
    {
      "bufferView": 6,
      "byteOffset": 56,
      "componentType": 5126,
      "count": 1,
      "max": [
        0.0
      ],
      "min": [
        0.0
      ],
      "type": "SCALAR"
    },
    {
      "bufferView": 8,
      "byteOffset": 160,
      "componentType": 5126,
      "count": 1,
      "max": [
        -0.0005150936776772141,
        -0.0004246919124852866,
        0.00014176624245010316,
        0.9999997615814209
      ],
      "min": [
        -0.0005150936776772141,
        -0.0004246919124852866,
        0.00014176624245010316,
        0.9999997615814209
      ],
      "type": "VEC4"
    },
    {
      "bufferView": 6,
      "byteOffset": 60,
      "componentType": 5126,
      "count": 1,
      "max": [
        0.0
      ],
      "min": [
        0.0
      ],
      "type": "SCALAR"
    },
    {
      "bufferView": 8,
      "byteOffset": 176,
      "componentType": 5126,
      "count": 1,
      "max": [
        0.4569641053676605,
        0.038939218968153,
        0.11841905862092972,
        0.880706787109375
      ],
      "min": [
        0.4569641053676605,
        0.038939218968153,
        0.11841905862092972,
        0.880706787109375
      ],
      "type": "VEC4"
    }
  ],
  "animations": [
    {
      "channels": [
        {
          "sampler": 0,
          "target": {
            "node": 68,
            "path": "rotation"
          }
        },
        {
          "sampler": 1,
          "target": {
            "node": 68,
            "path": "scale"
          }
        },
        {
          "sampler": 2,
          "target": {
            "node": 69,
            "path": "rotation"
          }
        },
        {
          "sampler": 3,
          "target": {
            "node": 70,
            "path": "rotation"
          }
        },
        {
          "sampler": 4,
          "target": {
            "node": 73,
            "path": "rotation"
          }
        },
        {
          "sampler": 5,
          "target": {
            "node": 73,
            "path": "scale"
          }
        },
        {
          "sampler": 6,
          "target": {
            "node": 74,
            "path": "rotation"
          }
        },
        {
          "sampler": 7,
          "target": {
            "node": 75,
            "path": "rotation"
          }
        }
      ],
      "name": "Armature.001|mixamo.com|Layer0",
      "samplers": [
        {
          "input": 21,
          "interpolation": "LINEAR",
          "output": 22
        },
        {
          "input": 23,
          "interpolation": "LINEAR",
          "output": 24
        },
        {
          "input": 25,
          "interpolation": "LINEAR",
          "output": 26
        },
        {
          "input": 27,
          "interpolation": "LINEAR",
          "output": 28
        },
        {
          "input": 29,
          "interpolation": "LINEAR",
          "output": 30
        },
        {
          "input": 31,
          "interpolation": "LINEAR",
          "output": 32
        },
        {
          "input": 33,
          "interpolation": "LINEAR",
          "output": 34
        },
        {
          "input": 35,
          "interpolation": "LINEAR",
          "output": 36
        }
      ]
    },
    {
      "channels": [
        {
          "sampler": 0,
          "target": {
            "node": 68,
            "path": "rotation"
          }
        },
        {
          "sampler": 1,
          "target": {
            "node": 68,
            "path": "scale"
          }
        },
        {
          "sampler": 2,
          "target": {
            "node": 69,
            "path": "rotation"
          }
        },
        {
          "sampler": 3,
          "target": {
            "node": 70,
            "path": "rotation"
          }
        },
        {
          "sampler": 4,
          "target": {
            "node": 73,
            "path": "rotation"
          }
        },
        {
          "sampler": 5,
          "target": {
            "node": 73,
            "path": "scale"
          }
        },
        {
          "sampler": 6,
          "target": {
            "node": 74,
            "path": "rotation"
          }
        },
        {
          "sampler": 7,
          "target": {
            "node": 75,
            "path": "rotation"
          }
        }
      ],
      "name": "Armature|mixamo.com|Layer0",
      "samplers": [
        {
          "input": 37,
          "interpolation": "LINEAR",
          "output": 38
        },
        {
          "input": 39,
          "interpolation": "LINEAR",
          "output": 40
        },
        {
          "input": 41,
          "interpolation": "LINEAR",
          "output": 42
        },
        {
          "input": 43,
          "interpolation": "LINEAR",
          "output": 44
        },
        {
          "input": 45,
          "interpolation": "LINEAR",
          "output": 46
        },
        {
          "input": 47,
          "interpolation": "LINEAR",
          "output": 48
        },
        {
          "input": 49,
          "interpolation": "LINEAR",
          "output": 50
        },
        {
          "input": 51,
          "interpolation": "LINEAR",
          "output": 52
        }
      ]
    }
  ],
  "asset": {
    "extras": {
      "author": "CVRxEarth (https://sketchfab.com/CVRxEarth)",
      "license": "CC-BY-4.0 (http://creativecommons.org/licenses/by/4.0/)",
      "source": "https://sketchfab.com/3d-models/spiderman-2099-spiderman-across-the-spider-verse-ebf113dae46f406388204bc283a40206",
      "title": "Spiderman 2099 Spiderman Across The Spider Verse"
    },
    "generator": "Sketchfab-14.64.0",
    "version": "2.0"
  },
  "bufferViews": [
    {
      "buffer": 0,
      "byteLength": 188072,
      "byteStride": 8,
      "name": "shortBufferViews",
      "target": 34962
    },
    {
      "buffer": 0,
      "byteLength": 505728,
      "byteOffset": 188072,
      "name": "floatBufferViews",
      "target": 34963
    },
    {
      "buffer": 0,
      "byteLength": 222904,
      "byteOffset": 693800,
      "byteStride": 8,
      "name": "floatBufferViews",
      "target": 34962
    },
    {
      "buffer": 0,
      "byteLength": 668712,
      "byteOffset": 916704,
      "byteStride": 12,
      "name": "floatBufferViews",
      "target": 34962
    },
    {
      "buffer": 0,
      "byteLength": 376144,
      "byteOffset": 1585416,
      "byteStride": 16,
      "name": "floatBufferViews",
      "target": 34962
    },
    {
      "buffer": 0,
      "byteLength": 4544,
      "byteOffset": 1961560,
      "name": "floatBufferViews"
    },
    {
      "buffer": 0,
      "byteLength": 64,
      "byteOffset": 1966104,
      "name": "floatBufferViews"
    },
    {
      "buffer": 0,
      "byteLength": 48,
      "byteOffset": 1966168,
      "byteStride": 12,
      "name": "floatBufferViews"
    },
    {
      "buffer": 0,
      "byteLength": 192,
      "byteOffset": 1966216,
      "byteStride": 16,
      "name": "floatBufferViews"
    }
  ],
  "buffers": [
    {
      "byteLength": 1966408,
      "uri": "scene.bin"
    }
  ],
  "extensionsRequired": [
    "KHR_materials_pbrSpecularGlossiness"
  ],
  "extensionsUsed": [
    "KHR_materials_pbrSpecularGlossiness",
    "KHR_materials_emissive_strength"
  ],
  "materials": [
    {
      "doubleSided": true,
      "extensions": {
        "KHR_materials_pbrSpecularGlossiness": {
          "diffuseFactor": [
            0.00614577323918954,
            0.0,
            0.21815952230455524,
            1.0
          ],
          "glossinessFactor": 0.5,
          "specularFactor": [
            0.08380977922980336,
            0.08380977922980336,
            0.08380977922980336
          ]
        }
      },
      "name": "HEAD"
    },
    {
      "doubleSided": true,
      "emissiveFactor": [
        0.9899636880863927,
        0.0,
        0.0
      ],
      "extensions": {
        "KHR_materials_emissive_strength": {
          "emissiveStrength": 10.0
        },
        "KHR_materials_pbrSpecularGlossiness": {
          "diffuseFactor": [
            1.0,
            0.0,
            0.0,
            1.0
          ],
          "glossinessFactor": 0.5,
          "specularFactor": [
            0.0,
            0.0,
            0.0
          ]
        }
      },
      "name": "HEAD.001"
    }
  ],
  "meshes": [
    {
      "name": "Object_0",
      "primitives": [
        {
          "attributes": {
            "JOINTS_0": 17,
            "NORMAL": 1,
            "POSITION": 0,
            "TEXCOORD_0": 2,
            "WEIGHTS_0": 18
          },
          "indices": 3,
          "material": 0,
          "mode": 4
        }
      ]
    },
    {
      "name": "Object_1",
      "primitives": [
        {
          "attributes": {
            "JOINTS_0": 19,
            "NORMAL": 5,
            "POSITION": 4,
            "TEXCOORD_0": 6,
            "WEIGHTS_0": 20
          },
          "indices": 7,
          "material": 1,
          "mode": 4
        }
      ]
    },
    {
      "name": "mesh_1",
      "primitives": [
        {
          "attributes": {
            "NORMAL": 9,
            "POSITION": 8,
            "TEXCOORD_0": 10
          },
          "indices": 11,
          "material": 1,
          "mode": 4
        }
      ]
    },
    {
      "name": "mesh_2",
      "primitives": [
        {
          "attributes": {
            "NORMAL": 13,
            "POSITION": 12,
            "TEXCOORD_0": 14
          },
          "indices": 15,
          "material": 1,
          "mode": 4
        }
      ]
    }
  ],
  "nodes": [
    {
      "children": [
        1
      ],
      "matrix": [
        0.831798255443573,
        0.0,
        0.0,
        0.0,
        0.0,
        1.8469631500729844e-16,
        -0.831798255443573,
        0.0,
        0.0,
        0.831798255443573,
        1.8469631500729844e-16,
        0.0,
        0.0,
        0.0,
        0.0,
        1.0
      ],
      "name": "Sketchfab_model"
    },
    {
      "children": [
        2
      ],
      "name": "root"
    },
    {
      "children": [
        3
      ],
      "matrix": [
        1.0,
        0.0,
        0.0,
        0.0,
        0.0,
        2.220446049250313e-16,
        1.0,
        0.0,
        0.0,
        -1.0,
        2.220446049250313e-16,
        0.0,
        0.0,
        0.0,
        0.0,
        1.0
      ],
      "name": "GLTF_SceneRootNode"
    },
    {
      "children": [
        4
      ],
      "name": "Armature_73"
    },
    {
      "children": [
        5,
        7,
        8,
        6
      ],
      "name": "GLTF_created_0"
    },
    {
      "children": [
        9,
        78,
        79,
        80,
        81,
        82
      ],
      "name": "GLTF_created_0_rootJoint"
    },
    {
      "name": "peter:ripeterhero_hi_cn_body1.001_72"
    },
    {
      "mesh": 0,
      "name": "Object_7",
      "skin": 0
    },
    {
      "mesh": 1,
      "name": "Object_8",
      "skin": 0
    },
    {
      "children": [
        10,
        68,
        73
      ],
      "name": "peter:Hips_66",
      "rotation": [
        1.0134465355804423e-07,
        0.0,
        0.0,
        1.0
      ],
      "translation": [
        0.002321119187399745,
        1.241713523864746,
        0.00781369861215353
      ]
    },
    {
      "children": [
        11
      ],
      "name": "peter:Spine_55",
      "rotation": [
        -0.03829757869243622,
        0.0,
        0.0,
        0.9992663860321045
      ],
      "scale": [
        1.0,
        0.9999998211860657,
        0.9999997615814209
      ],
      "translation": [
        0.0,
        0.10498273372650146,
        -0.008058913052082062
      ]
    },
    {
      "children": [
        12
      ],
      "name": "peter:Spine1_54",
      "rotation": [
        -3.9115555239277455e-08,
        0.0,
        0.0,
        1.0
      ],
      "scale": [
        1.0,
        1.0000001192092896,
        1.0000001192092896
      ],
      "translation": [
        -2.3283064365386963e-10,
        0.12284077703952789,
        1.210719347000122e-08
      ]
    },
    {
      "children": [
        13,
        16,
        42
      ],
      "name": "peter:Spine2_53",
      "rotation": [
        -6.146729703004894e-08,
        0.0,
        0.0,
        1.0
      ],
      "translation": [
        0.0,
        0.1403895765542984,
        9.313225746154785e-09
      ]
    },
    {
      "children": [
        14
      ],
      "name": "peter:Neck_2",
      "rotation": [
        0.03829769790172577,
        0.0,
        0.0,
        0.9992663860321045
      ],
      "scale": [
        1.0,
        0.9999998807907104,
        0.9999999403953552
      ],
      "translation": [
        0.0,
        0.15793795883655548,
        0.0
      ]
    },
    {
      "children": [
        15
      ],
      "name": "peter:Head_1",
      "rotation": [
        0.2264346480369568,
        -0.25323978066444397,
        -0.00678434269502759,
        0.9405056834220886
      ],
      "scale": [
        0.9999999403953552,
        0.9999999403953552,
        0.9999999403953552
      ],
      "translation": [
        0.0,
        0.07753920555114746,
        0.02213791385293007
      ]
    },
    {
      "name": "peter:HeadTop_End_0",
      "rotation": [
        -7.450581485102248e-09,
        1.0244550097127103e-08,
        -1.4901161193847656e-08,
        1.0
      ],
      "scale": [
        0.9999998807907104,
        1.0,
        0.9999999403953552
      ],
      "translation": [
        8.940696716308594e-08,
        0.25116026401519775,
        0.0717078298330307
      ]
    },
    {
      "children": [
        17
      ],
      "name": "peter:LeftShoulder_27",
      "rotation": [
        0.5697789192199707,
        0.41133585572242737,
        -0.5906649827957153,
        0.3965725004673004
      ],
      "scale": [
        0.9999997615814209,
        0.9999997019767761,
        1.000000238418579
      ],
      "translation": [
        0.0704287439584732,
        0.13230489194393158,
        -0.0025145660620182753
      ]
    },
    {
      "children": [
        18
      ],
      "name": "peter:LeftArm_26",
      "rotation": [
        0.45212385058403015,
        0.04123686999082565,
        -0.09697787463665009,
        0.8857080936431885
      ],
      "translation": [
        2.4794896802404764e-08,
        0.14850890636444092,
        -8.572501286607803e-08
      ]
    },
    {
      "children": [
        19,
        21
      ],
      "name": "peter:LeftForeArm_25",
      "rotation": [
        0.053473833948373795,
        0.0330774150788784,
        0.18022483587265015,
        0.9816136956214905
      ],
      "scale": [
        0.9999998211860657,
        0.9999998807907104,
        1.000000238418579
      ],
      "translation": [
        3.3922106013051234e-08,
        0.31113171577453613,
        2.0174367421077477e-07
      ]
    },
    {
      "children": [
        20
      ],
      "matrix": [
        0.4539453087422075,
        0.5293174541746611,
        -0.7167682257027006,
        0.0,
        -0.522639843094784,
        -0.49333659914834316,
        -0.6953176211995542,
        0.0,
        -0.7216517519418917,
        0.6902478052459151,
        0.05269455638294995,
        0.0,
        0.5559141635894775,
        0.5111382007598877,
        1.327876091003418,
        1.0
      ],
      "name": "Plane_24"
    },
    {
      "mesh": 2,
      "name": "mesh_1"
    },
    {
      "children": [
        22,
        26,
        30,
        34,
        38
      ],
      "name": "peter:LeftHand_23",
      "rotation": [
        0.16005352139472961,
        0.04662501811981201,
        0.007059362251311541,
        0.985981285572052
      ],
      "scale": [
        1.000000238418579,
        1.0,
        0.9999998807907104
      ],
      "translation": [
        -1.3242969032489782e-07,
        0.3259831666946411,
        1.0966957120217558e-07
      ]
    },
    {
      "children": [
        23
      ],
      "name": "peter:LeftHandThumb1_6",
      "rotation": [
        0.11424995958805084,
        0.042479075491428375,
        0.34591206908226013,
        0.9303157329559326
      ],
      "scale": [
        1.000000238418579,
        0.9999999403953552,
        1.0
      ],
      "translation": [
        -0.03495015576481819,
        0.04241183400154114,
        0.013701195828616619
      ]
    },
    {
      "children": [
        24
      ],
      "name": "peter:LeftHandThumb2_5",
      "rotation": [
        0.23943860828876495,
        -0.0854954645037651,
        -0.6888576149940491,
        0.6788482666015625
      ],
      "scale": [
        0.9999999403953552,
        1.0,
        0.9999997615814209
      ],
      "translation": [
        0.0009989012032747269,
        0.04530022293329239,
        3.5645430784825294e-07
      ]
    },
    {
      "children": [
        25
      ],
      "name": "peter:LeftHandThumb3_4",
      "rotation": [
        -0.03456408530473709,
        2.2589601655909064e-07,
        -8.956164947448997e-07,
        0.9994025230407715
      ],
      "scale": [
        1.0000001192092896,
        0.9999999403953552,
        0.9999999403953552
      ],
      "translation": [
        0.0025531575083732605,
        0.04264850914478302,
        -7.372062782451394e-08
      ]
    },
    {
      "name": "peter:LeftHandThumb4_3",
      "rotation": [
        1.0430811414607888e-07,
        -8.246861398220062e-07,
        -2.60770320892334e-08,
        1.0
      ],
      "scale": [
        1.0,
        0.9999998807907104,
        1.0
      ],
      "translation": [
        -0.003552088513970375,
        0.033447593450546265,
        1.9371518078514782e-07
      ]
    },
    {
      "children": [
        27
      ],
      "name": "peter:LeftHandIndex1_10",
      "rotation": [
        0.771838366985321,
        0.023033499717712402,
        0.01895376294851303,
        0.6351187229156494
      ],
      "scale": [
        0.9999999403953552,
        1.0000003576278687,
        1.0
      ],
      "translation": [
        -0.04562217742204666,
        0.13522584736347198,
        -0.007518804632127285
      ]
    },
    {
      "children": [
        28
      ],
      "name": "peter:LeftHandIndex2_9",
      "rotation": [
        0.6426185369491577,
        -4.327204123910633e-07,
        -3.8974354765741737e-07,
        0.7661862969398499
      ],
      "scale": [
        0.9999999403953552,
        1.000000238418579,
        1.000000238418579
      ],
      "translation": [
        3.575979280867614e-05,
        0.044461239129304886,
        -0.002686677500605583
      ]
    },
    {
      "children": [
        29
      ],
      "name": "peter:LeftHandIndex3_8",
      "rotation": [
        -0.019731922075152397,
        5.279262040858157e-07,
        7.636494387952553e-07,
        0.9998053312301636
      ],
      "scale": [
        1.000000238418579,
        1.000000238418579,
        1.0
      ],
      "translation": [
        -5.3942203521728516e-06,
        0.044073380529880524,
        -1.242732565742699e-07
      ]
    },
    {
      "name": "peter:LeftHandIndex4_7",
      "rotation": [
        1.1842931826322456e-06,
        -2.948800386093353e-07,
        -1.0617077350616455e-06,
        1.0
      ],
      "scale": [
        0.9999998807907104,
        0.9999998211860657,
        0.9999998211860657
      ],
      "translation": [
        -3.0338764190673828e-05,
        0.038015060126781464,
        -2.3282902272825368e-09
      ]
    },
    {
      "children": [
        31
      ],
      "name": "peter:LeftHandMiddle1_14",
      "rotation": [
        0.7454272508621216,
        0.024663517251610756,
        0.022028189152479172,
        0.6657662391662598
      ],
      "scale": [
        0.9999997019767761,
        1.0000003576278687,
        1.0000003576278687
      ],
      "translation": [
        -0.013869425281882286,
        0.13891804218292236,
        -0.009685028344392776
      ]
    },
    {
      "children": [
        32
      ],
      "name": "peter:LeftHandMiddle2_13",
      "rotation": [
        0.6643723249435425,
        -1.517378933613145e-07,
        -4.2948903455908294e-07,
        0.7474018335342407
      ],
      "scale": [
        0.9999998807907104,
        1.000000238418579,
        0.9999999403953552
      ],
      "translation": [
        1.055275060934946e-05,
        0.0522819347679615,
        0.0015760589158162475
      ]
    },
    {
      "children": [
        33
      ],
      "name": "peter:LeftHandMiddle3_12",
      "rotation": [
        -0.023314345628023148,
        2.2637092911281798e-07,
        5.551323738473002e-07,
        0.999728262424469
      ],
      "scale": [
        1.0000001192092896,
        0.9999998807907104,
        0.9999997615814209
      ],
      "translation": [
        1.214444637298584e-05,
        0.046687472611665726,
        -8.624606095963827e-08
      ]
    },
    {
      "name": "peter:LeftHandMiddle4_11",
      "rotation": [
        -1.1585652828216553e-06,
        7.823107495141812e-08,
        5.029141902923584e-07,
        1.0
      ],
      "scale": [
        0.9999998211860657,
        0.9999999403953552,
        1.0000001192092896
      ],
      "translation": [
        -2.2679567337036133e-05,
        0.04146642982959747,
        -2.384183090953229e-07
      ]
    },
    {
      "children": [
        35
      ],
      "name": "peter:LeftHandRing1_18",
      "rotation": [
        0.725588858127594,
        0.022811412811279297,
        0.02161133848130703,
        0.6874107122421265
      ],
      "scale": [
        0.9999999403953552,
        1.0000005960464478,
        1.000000238418579
      ],
      "translation": [
        0.01930924504995346,
        0.13726294040679932,
        0.008639802224934101
      ]
    },
    {
      "children": [
        36
      ],
      "name": "peter:LeftHandRing2_17",
      "rotation": [
        0.7059534192085266,
        4.831799174098705e-07,
        -4.055196427543706e-07,
        0.708258330821991
      ],
      "scale": [
        1.0,
        1.0000003576278687,
        1.0
      ],
      "translation": [
        -4.0298327803611755e-05,
        0.03433775156736374,
        0.007018971722573042
      ]
    },
    {
      "children": [
        37
      ],
      "name": "peter:LeftHandRing3_16",
      "rotation": [
        -0.01825016550719738,
        1.9444782139999006e-07,
        -1.2518039511633106e-06,
        0.9998334646224976
      ],
      "scale": [
        1.0000001192092896,
        1.0000001192092896,
        1.0
      ],
      "translation": [
        3.21120023727417e-05,
        0.03493046015501022,
        1.0647983117451076e-07
      ]
    },
    {
      "name": "peter:LeftHandRing4_15",
      "rotation": [
        -1.4619437251894851e-06,
        -1.1408680222757539e-08,
        1.2814998626708984e-06,
        1.0
      ],
      "scale": [
        0.9999999403953552,
        0.9999999403953552,
        0.9999998807907104
      ],
      "translation": [
        8.016824722290039e-06,
        0.030177760869264603,
        1.247972107876194e-07
      ]
    },
    {
      "children": [
        39
      ],
      "name": "peter:LeftHandPinky1_22",
      "rotation": [
        0.7619696259498596,
        -0.029947377741336823,
        -0.02540585957467556,
        0.6464208960533142
      ],
      "scale": [
        0.9999998211860657,
        1.0000001192092896,
        1.0000003576278687
      ],
      "translation": [
        0.037879928946495056,
        0.13044562935829163,
        0.015384558588266373
      ]
    },
    {
      "children": [
        40
      ],
      "name": "peter:LeftHandPinky2_21",
      "rotation": [
        0.6617807149887085,
        -1.123401716540684e-06,
        -5.367329549699207e-07,
        0.7496975064277649
      ],
      "scale": [
        1.0000001192092896,
        1.0000003576278687,
        1.000000238418579
      ],
      "translation": [
        1.1158793313370552e-05,
        0.02190438099205494,
        0.00015351868933066726
      ]
    },
    {
      "children": [
        41
      ],
      "name": "peter:LeftHandPinky3_20",
      "rotation": [
        0.06498797982931137,
        1.286614633499994e-06,
        1.4511602586253503e-08,
        0.997886061668396
      ],
      "scale": [
        0.9999999403953552,
        1.0000001192092896,
        0.9999998807907104
      ],
      "translation": [
        -3.215670585632324e-05,
        0.023750649765133858,
        5.863511276515965e-08
      ]
    },
    {
      "name": "peter:LeftHandPinky4_19",
      "rotation": [
        9.387731552124023e-07,
        1.3317912817001343e-07,
        -2.332031726837158e-06,
        1.0
      ],
      "scale": [
        0.9999999403953552,
        1.0000001192092896,
        1.0000001192092896
      ],
      "translation": [
        2.09808349609375e-05,
        0.017305612564086914,
        -1.1827773960249033e-07
      ]
    },
    {
      "children": [
        43
      ],
      "name": "peter:RightShoulder_52",
      "rotation": [
        0.5745852589607239,
        -0.40785926580429077,
        0.5864698886871338,
        0.39944422245025635
      ],
      "translation": [
        -0.07042904943227768,
        0.13222144544124603,
        -0.0014273208798840642
      ]
    },
    {
      "children": [
        44
      ],
      "name": "peter:RightArm_51",
      "rotation": [
        0.45348113775253296,
        -0.05788903310894966,
        0.10330240428447723,
        0.883364200592041
      ],
      "scale": [
        1.0,
        0.9999997615814209,
        0.9999998807907104
      ],
      "translation": [
        9.188416694172474e-10,
        0.14850884675979614,
        2.089668242888365e-07
      ]
    },
    {
      "children": [
        45,
        47
      ],
      "name": "peter:RightForeArm_50",
      "rotation": [
        0.036849409341812134,
        -0.006400619633495808,
        -0.14540629088878632,
        0.9886648654937744
      ],
      "scale": [
        1.000000238418579,
        0.9999999403953552,
        1.0
      ],
      "translation": [
        8.968285669652687e-09,
        0.31106069684028625,
        1.171139345501615e-07
      ]
    },
    {
      "children": [
        46
      ],
      "matrix": [
        0.45250659980795027,
        -0.5308521030063733,
        0.7165429658184903,
        0.0,
        0.520975956501182,
        -0.49476529871393127,
        -0.695551113819964,
        0.0,
        0.723755366044305,
        0.6880431264987864,
        0.052676619100403554,
        0.0,
        -0.5571332573890686,
        0.5140532851219177,
        1.3247222900390625,
        1.0
      ],
      "name": "Plane.001_49"
    },
    {
      "mesh": 3,
      "name": "mesh_2"
    },
    {
      "children": [
        48,
        52,
        56,
        60,
        64
      ],
      "name": "peter:RightHand_48",
      "rotation": [
        0.10741676390171051,
        -0.06158863753080368,
        -0.0012368500465527177,
        0.9923039078712463
      ],
      "scale": [
        0.9999996423721313,
        0.9999998211860657,
        1.0
      ],
      "translation": [
        2.559919920486209e-08,
        0.3250412344932556,
        -2.769572660099584e-08
      ]
    },
    {
      "children": [
        49
      ],
      "name": "peter:RightHandThumb1_31",
      "rotation": [
        0.0980992540717125,
        -0.03469015657901764,
        -0.33157607913017273,
        0.9376729130744934
      ],
      "scale": [
        0.9999998807907104,
        0.9999998211860657,
        0.9999998807907104
      ],
      "translation": [
        0.03574708476662636,
        0.04387800022959709,
        0.011973471380770206
      ]
    },
    {
      "children": [
        50
      ],
      "name": "peter:RightHandThumb2_30",
      "rotation": [
        0.2733050584793091,
        0.05238546058535576,
        0.534822940826416,
        0.7978249192237854
      ],
      "scale": [
        1.0,
        1.0000003576278687,
        1.0000001192092896
      ],
      "translation": [
        0.00017443671822547913,
        0.04627866670489311,
        2.792135092022363e-07
      ]
    },
    {
      "children": [
        51
      ],
      "name": "peter:RightHandThumb3_29",
      "rotation": [
        -0.08698714524507523,
        5.345447675608739e-07,
        1.3968635812489083e-06,
        0.996209442615509
      ],
      "scale": [
        0.9999998211860657,
        0.9999998807907104,
        0.9999997615814209
      ],
      "translation": [
        -0.0007223337888717651,
        0.04235322028398514,
        -2.143757598105367e-07
      ]
    },
    {
      "name": "peter:RightHandThumb4_28",
      "rotation": [
        -7.726486046522041e-07,
        5.462206900119781e-07,
        -1.9703293219208717e-06,
        1.0
      ],
      "scale": [
        1.000000238418579,
        1.0,
        1.0
      ],
      "translation": [
        0.0005478151142597198,
        0.03103327751159668,
        2.905728138102859e-07
      ]
    },
    {
      "children": [
        53
      ],
      "name": "peter:RightHandIndex1_35",
      "rotation": [
        0.7264068126678467,
        -0.026759153231978416,
        -0.025280237197875977,
        0.6862784624099731
      ],
      "scale": [
        1.0000001192092896,
        1.0000004768371582,
        1.0000005960464478
      ],
      "translation": [
        0.04398311674594879,
        0.13273316621780396,
        -0.002720917109400034
      ]
    },
    {
      "children": [
        54
      ],
      "name": "peter:RightHandIndex2_34",
      "rotation": [
        0.6957725882530212,
        6.156616336738807e-07,
        9.771023457005867e-08,
        0.7182621955871582
      ],
      "scale": [
        0.9999996423721313,
        0.9999998211860657,
        1.000000238418579
      ],
      "translation": [
        9.853840310825035e-06,
        0.04211075231432915,
        0.0013033730210736394
      ]
    },
    {
      "children": [
        55
      ],
      "name": "peter:RightHandIndex3_33",
      "rotation": [
        0.008588382042944431,
        -9.293655693909386e-07,
        -2.5714140861055057e-07,
        0.999963104724884
      ],
      "scale": [
        1.0,
        1.0000001192092896,
        1.0000001192092896
      ],
      "translation": [
        -6.92903995513916e-06,
        0.04302229359745979,
        -2.290986174102727e-07
      ]
    },
    {
      "name": "peter:RightHandIndex4_32",
      "rotation": [
        5.569308996200562e-07,
        1.0477378964424133e-07,
        -1.8998981943241233e-07,
        1.0
      ],
      "scale": [
        1.000000238418579,
        0.9999999403953552,
        0.9999999403953552
      ],
      "translation": [
        -3.0249357223510742e-06,
        0.03608822077512741,
        5.029115968113729e-08
      ]
    },
    {
      "children": [
        57
      ],
      "name": "peter:RightHandMiddle1_39",
      "rotation": [
        0.7001168727874756,
        -0.026660796254873276,
        -0.02715151198208332,
        0.7130136489868164
      ],
      "scale": [
        0.9999999403953552,
        1.0,
        0.9999998807907104
      ],
      "translation": [
        0.012642940506339073,
        0.1347893327474594,
        -0.004007325042039156
      ]
    },
    {
      "children": [
        58
      ],
      "name": "peter:RightHandMiddle2_38",
      "rotation": [
        0.7073477506637573,
        6.524181230815884e-07,
        9.894675940813613e-07,
        0.7068657279014587
      ],
      "scale": [
        1.0000001192092896,
        1.0000004768371582,
        1.0000004768371582
      ],
      "translation": [
        -2.8030675821355544e-05,
        0.046401381492614746,
        0.004882612731307745
      ]
    },
    {
      "children": [
        59
      ],
      "name": "peter:RightHandMiddle3_37",
      "rotation": [
        0.01863907277584076,
        -5.469128723234462e-07,
        -7.344028745137621e-07,
        0.9998263120651245
      ],
      "scale": [
        0.9999997019767761,
        1.0,
        0.9999999403953552
      ],
      "translation": [
        4.5746564865112305e-06,
        0.04535637050867081,
        -2.3355111977707566e-07
      ]
    },
    {
      "name": "peter:RightHandMiddle4_36",
      "rotation": [
        5.280598429635575e-07,
        1.396983151380482e-08,
        -6.854533580735733e-07,
        1.0
      ],
      "translation": [
        2.345442771911621e-05,
        0.03856953606009483,
        -3.7252654294661625e-08
      ]
    },
    {
      "children": [
        61
      ],
      "name": "peter:RightHandRing1_43",
      "rotation": [
        0.7181417942047119,
        -0.006979883182793856,
        -0.0067626615054905415,
        0.6958289742469788
      ],
      "scale": [
        1.0,
        1.0,
        1.000000238418579
      ],
      "translation": [
        -0.01698342338204384,
        0.1371433436870575,
        0.006072654388844967
      ]
    },
    {
      "children": [
        62
      ],
      "name": "peter:RightHandRing2_42",
      "rotation": [
        0.7070156931877136,
        -7.225467015814502e-07,
        2.4294251943501877e-07,
        0.707197904586792
      ],
      "scale": [
        0.9999998211860657,
        1.0000003576278687,
        1.0000003576278687
      ],
      "translation": [
        -8.016220817808062e-06,
        0.03568252548575401,
        0.0057054730132222176
      ]
    },
    {
      "children": [
        63
      ],
      "name": "peter:RightHandRing3_41",
      "rotation": [
        0.011660220101475716,
        -5.4863999565668564e-08,
        3.240473063215177e-07,
        0.999932050704956
      ],
      "scale": [
        1.0,
        0.9999999403953552,
        1.0
      ],
      "translation": [
        5.025416612625122e-06,
        0.036521222442388535,
        -7.263506063281966e-08
      ]
    },
    {
      "name": "peter:RightHandRing4_40",
      "rotation": [
        7.450580596923828e-07,
        -1.0943040962274608e-07,
        7.450580596923828e-07,
        1.0
      ],
      "scale": [
        0.9999998807907104,
        1.0,
        1.0
      ],
      "translation": [
        2.7269122711004457e-06,
        0.0296669602394104,
        1.0244564663253186e-07
      ]
    },
    {
      "children": [
        65
      ],
      "name": "peter:RightHandPinky1_47",
      "rotation": [
        0.7543766498565674,
        0.018446991220116615,
        0.016040170565247536,
        0.6559866070747375
      ],
      "scale": [
        1.0000001192092896,
        0.9999999403953552,
        0.9999999403953552
      ],
      "translation": [
        -0.0388709232211113,
        0.13407909870147705,
        0.007748494856059551
      ]
    },
    {
      "children": [
        66
      ],
      "name": "peter:RightHandPinky2_46",
      "rotation": [
        0.6806374788284302,
        -2.5865692805382423e-06,
        -7.411691882452942e-08,
        0.732620358467102
      ],
      "scale": [
        0.9999998211860657,
        0.9999998211860657,
        0.9999997615814209
      ],
      "translation": [
        8.64559206092963e-06,
        0.02906268648803234,
        -0.005912386812269688
      ]
    },
    {
      "children": [
        67
      ],
      "name": "peter:RightHandPinky3_45",
      "rotation": [
        -0.057483457028865814,
        5.499080657500599e-07,
        3.449202097272064e-07,
        0.9983465075492859
      ],
      "scale": [
        1.0000001192092896,
        1.0000001192092896,
        1.0000001192092896
      ],
      "translation": [
        2.6497989892959595e-05,
        0.02701486088335514,
        -1.0328640343004736e-07
      ]
    },
    {
      "name": "peter:RightHandPinky4_44",
      "rotation": [
        -2.3994341518118745e-06,
        -3.2865496990552856e-08,
        -7.171183256104996e-07,
        1.0
      ],
      "scale": [
        1.0000003576278687,
        0.9999999403953552,
        0.9999998807907104
      ],
      "translation": [
        -3.526359796524048e-05,
        0.019480228424072266,
        1.5316504686779808e-07
      ]
    },
    {
      "children": [
        69
      ],
      "name": "peter:LeftUpLeg_60",
      "rotation": [
        -0.00242360751144588,
        0.010736205615103245,
        -0.9996511936187744,
        0.024008704349398613
      ],
      "scale": [
        1.000010371208191,
        1.000000238418579,
        1.000001072883606
      ],
      "translation": [
        0.08805729448795319,
        -0.05821776017546654,
        0.010750570334494114
      ]
    },
    {
      "children": [
        70
      ],
      "name": "peter:LeftLeg_59",
      "rotation": [
        -0.032266296446323395,
        0.0005970548954792321,
        -0.003309661755338311,
        0.9994736313819885
      ],
      "scale": [
        0.9999993443489075,
        0.9999998211860657,
        0.9999989867210388
      ],
      "translation": [
        9.072180340297109e-09,
        0.5659103989601135,
        -4.740150494342288e-09
      ]
    },
    {
      "children": [
        71
      ],
      "name": "peter:LeftFoot_58",
      "rotation": [
        0.5365144610404968,
        -0.013930064626038074,
        -0.022920820862054825,
        0.8434647917747498
      ],
      "scale": [
        1.0,
        0.9999995827674866,
        0.9999998807907104
      ],
      "translation": [
        -1.8241925303641437e-08,
        0.5202256441116333,
        -3.775777912551348e-09
      ]
    },
    {
      "children": [
        72
      ],
      "name": "peter:LeftToeBase_57",
      "rotation": [
        0.2649962306022644,
        -0.022011565044522285,
        0.0069450014270842075,
        0.9639731645584106
      ],
      "scale": [
        1.0000001192092896,
        0.9999995827674866,
        0.9999998211860657
      ],
      "translation": [
        -2.6323089485913442e-08,
        0.1843859851360321,
        -2.7229903665215716e-08
      ]
    },
    {
      "name": "peter:LeftToe_End_56",
      "rotation": [
        -8.326607314756984e-08,
        3.207791905879276e-06,
        -9.685755486543712e-08,
        1.0
      ],
      "scale": [
        1.0000001192092896,
        0.9999998211860657,
        0.9999999403953552
      ],
      "translation": [
        1.3118539143874841e-08,
        0.07832204550504684,
        7.217659359071149e-09
      ]
    },
    {
      "children": [
        74
      ],
      "name": "peter:RightUpLeg_65",
      "rotation": [
        -0.16055883467197418,
        -0.0645323172211647,
        0.9798060655593872,
        0.10018275678157806
      ],
      "scale": [
        1.000016450881958,
        1.0000008344650269,
        1.000008225440979
      ],
      "translation": [
        -0.0880572721362114,
        -0.05821823701262474,
        0.014493267983198166
      ]
    },
    {
      "children": [
        75
      ],
      "name": "peter:RightLeg_64",
      "rotation": [
        -8.653431723359972e-05,
        -0.0004247367905918509,
        2.379159013798926e-05,
        0.9999999403953552
      ],
      "scale": [
        1.0000001192092896,
        0.9999995231628418,
        1.000000238418579
      ],
      "translation": [
        -1.3100871498750166e-08,
        0.566256582736969,
        2.545786081942225e-10
      ]
    },
    {
      "children": [
        76
      ],
      "name": "peter:RightFoot_63",
      "rotation": [
        0.45676615834236145,
        0.03899402171373367,
        0.11846411228179932,
        0.8808010220527649
      ],
      "scale": [
        1.0000005960464478,
        1.000001072883606,
        0.9999980926513672
      ],
      "translation": [
        2.973064994193919e-08,
        0.5198090672492981,
        -3.540108206578907e-09
      ]
    },
    {
      "children": [
        77
      ],
      "name": "peter:RightToeBase_62",
      "rotation": [
        0.33807554841041565,
        0.02168324403464794,
        -0.00870945118367672,
        0.9408288598060608
      ],
      "scale": [
        0.9999998211860657,
        0.9999999403953552,
        0.9999999403953552
      ],
      "translation": [
        -1.7569854904309068e-08,
        0.18507885932922363,
        1.1766058349849118e-08
      ]
    },
    {
      "name": "peter:RightToe_End_61",
      "rotation": [
        5.180477202770817e-08,
        -5.249861715128645e-06,
        -1.7893761139475828e-07,
        1.0
      ],
      "scale": [
        0.9999998807907104,
        0.9999997615814209,
        1.0000001192092896
      ],
      "translation": [
        1.5730595492868815e-08,
        0.07929622381925583,
        2.095474238572592e-09
      ]
    },
    {
      "name": "Ctrl_Master_67",
      "rotation": [
        0.0,
        0.004999978933483362,
        0.0,
        0.9999874830245972
      ]
    },
    {
      "name": "HeelIK.L_68",
      "rotation": [
        0.006068874150514603,
        0.49998772144317627,
        0.8660041093826294,
        0.003503865795210004
      ],
      "scale": [
        1.0000004768371582,
        1.000000238418579,
        1.0000005960464478
      ],
      "translation": [
        0.13880710303783417,
        0.10050699859857559,
        -0.03838548809289932
      ]
    },
    {
      "name": "KneeIK.L_69",
      "rotation": [
        0.018114926293492317,
        -0.7068747282028198,
        -0.7068747878074646,
        0.018114926293492317
      ],
      "translation": [
        0.11796043813228607,
        0.6178762316703796,
        0.5085890293121338
      ]
    },
    {
      "name": "HeelIK.R_70",
      "rotation": [
        -0.14120078086853027,
        0.4134986400604248,
        0.8982195854187012,
        0.04777814820408821
      ],
      "scale": [
        0.9999997019767761,
        1.0000004768371582,
        1.0000001192092896
      ],
      "translation": [
        -0.2814123034477234,
        0.10050642490386963,
        -0.1545887291431427
      ]
    },
    {
      "name": "KneeIK.R_71",
      "rotation": [
        0.02120368368923664,
        0.7067888379096985,
        0.7067887783050537,
        0.02120368368923664
      ],
      "translation": [
        -0.3461068570613861,
        0.6809754967689514,
        0.4620093107223511
      ]
    }
  ],
  "scene": 0,
  "scenes": [
    {
      "name": "Sketchfab_Scene",
      "nodes": [
        0
      ]
    }
  ],
  "skins": [
    {
      "inverseBindMatrices": 16,
      "joints": [
        5,
        9,
        10,
        11,
        12,
        13,
        14,
        15,
        16,
        17,
        18,
        21,
        22,
        23,
        24,
        25,
        26,
        27,
        28,
        29,
        30,
        31,
        32,
        33,
        34,
        35,
        36,
        37,
        38,
        39,
        40,
        41,
        42,
        43,
        44,
        47,
        48,
        49,
        50,
        51,
        52,
        53,
        54,
        55,
        56,
        57,
        58,
        59,
        60,
        61,
        62,
        63,
        64,
        65,
        66,
        67,
        68,
        69,
        70,
        71,
        72,
        73,
        74,
        75,
        76,
        77,
        78,
        79,
        80,
        81,
        82
      ],
      "skeleton": 5
    }
  ]
}
