{
  "accessors": [
    {
      "bufferView": 3,
      "componentType": 5126,
      "count": 9343,
      "max": [
        6.672179698944092,
        25.12354278564453,
        2.8077073097229004
      ],
      "min": [
        -6.67218017578125,
        0.04875770956277847,
        -2.380948781967163
      ],
      "type": "VEC3"
    },
    {
      "bufferView": 3,
      "byteOffset": 112116,
      "componentType": 5126,
      "count": 9343,
      "max": [
        0.9995718598365784,
        0.9998406767845154,
        0.9999158978462219
      ],
      "min": [
        -0.9995718598365784,
        -0.9999858736991882,
        -0.9996545910835266
      ],
      "type": "VEC3"
    },
    {
      "bufferView": 2,
      "componentType": 5126,
      "count": 9343,
      "max": [
        1.9943336248397827,
        0.9970462322235107
      ],
      "min": [
        0.003481050254777074,
        0.00312650203704834
      ],
      "type": "VEC2"
    },
    {
      "bufferView": 1,
      "componentType": 5125,
      "count": 43962,
      "type": "SCALAR"
    },
    {
      "bufferView": 3,
      "byteOffset": 224232,
      "componentType": 5126,
      "count": 728,
      "max": [
        6.956432819366455,
        24.992937088012695,
        -1.601702094078064
      ],
      "min": [
        -6.956578254699707,
        14.300071716308594,
        -4.5297532081604
      ],
      "type": "VEC3"
    },
    {
      "bufferView": 3,
      "byteOffset": 232968,
      "componentType": 5126,
      "count": 728,
      "max": [
        0.9829453229904175,
        0.9911345839500427,
        0.9998885989189148
      ],
      "min": [
        -0.9829480648040771,
        -0.9968067407608032,
        -0.992647647857666
      ],
      "type": "VEC3"
    },
    {
      "bufferView": 2,
      "byteOffset": 74744,
      "componentType": 5126,
      "count": 728,
      "max": [
        0.987407386302948,
        0.9896277785301208
      ],
      "min": [
        0.013696580193936825,
        0.012154340744018555
      ],
      "type": "VEC2"
    },
    {
      "bufferView": 1,
      "byteOffset": 175848,
      "componentType": 5125,
      "count": 3408,
      "type": "SCALAR"
    },
    {
      "bufferView": 3,
      "byteOffset": 241704,
      "componentType": 5126,
      "count": 1483,
      "max": [
        -2.341480255126953,
        -9.74890422821045,
        0.909988522529602
      ],
      "min": [
        -4.090696334838867,
        -24.216157913208008,
        -1.1161292791366577
      ],
      "type": "VEC3"
    },
    {
      "bufferView": 3,
      "byteOffset": 259500,
      "componentType": 5126,
      "count": 1483,
      "max": [
        1.0,
        1.0,
        1.0
      ],
      "min": [
        -1.0,
        -1.0,
        -1.0
      ],
      "type": "VEC3"
    },
    {
      "bufferView": 2,
      "byteOffset": 80568,
      "componentType": 5126,
      "count": 1483,
      "max": [
        0.9775000214576721,
        0.9919000267982483
      ],
      "min": [
        0.018200000748038292,
        0.04830002784729004
      ],
      "type": "VEC2"
    },
    {
      "bufferView": 1,
      "byteOffset": 189480,
      "componentType": 5125,
      "count": 6786,
      "type": "SCALAR"
    },
    {
      "bufferView": 3,
      "byteOffset": 277296,
      "componentType": 5126,
      "count": 948,
      "max": [
        -6.2798919677734375,
        -14.428651809692383,
        0.9872843623161316
      ],
      "min": [
        -10.988149642944336,
        -23.388935089111328,
        -0.9872685074806213
      ],
      "type": "VEC3"
    },
    {
      "bufferView": 3,
      "byteOffset": 288672,
      "componentType": 5126,
      "count": 948,
      "max": [
        0.9993691444396973,
        0.971066415309906,
        0.9998653531074524
      ],
      "min": [
        -0.9999979138374329,
        -1.0,
        -0.9998899698257446
      ],
      "type": "VEC3"
    },
    {
      "bufferView": 2,
      "byteOffset": 92432,
      "componentType": 5126,
      "count": 948,
      "max": [
        0.9916999936103821,
        0.9940000176429749
      ],
      "min": [
        0.13449999690055847,
        0.009299993515014648
      ],
      "type": "VEC2"
    },
    {
      "bufferView": 1,
      "byteOffset": 216624,
      "componentType": 5125,
      "count": 4740,
      "type": "SCALAR"
    },
    {
      "bufferView": 3,
      "byteOffset": 300048,
      "componentType": 5126,
      "count": 948,
      "max": [
        -13.79896354675293,
        -14.428653717041016,
        0.9872857928276062
      ],
      "min": [
        -18.507225036621094,
        -23.388935089111328,
        -0.9872670769691467
      ],
      "type": "VEC3"
    },
    {
      "bufferView": 3,
      "byteOffset": 311424,
      "componentType": 5126,
      "count": 948,
      "max": [
        0.9993691444396973,
        0.971066415309906,
        0.9998653531074524
      ],
      "min": [
        -0.9999979138374329,
        -1.0,
        -0.9998899698257446
      ],
      "type": "VEC3"
    },
    {
      "bufferView": 2,
      "byteOffset": 100016,
      "componentType": 5126,
      "count": 948,
      "max": [
        0.9916999936103821,
        0.9940000176429749
      ],
      "min": [
        0.13449999690055847,
        0.009299993515014648
      ],
      "type": "VEC2"
    },
    {
      "bufferView": 1,
      "byteOffset": 235584,
      "componentType": 5125,
      "count": 4740,
      "type": "SCALAR"
    },
    {
      "bufferView": 3,
      "byteOffset": 322800,
      "componentType": 5126,
      "count": 1483,
      "max": [
        4.203390121459961,
        -9.74890422821045,
        0.9099915623664856
      ],
      "min": [
        2.454174041748047,
        -24.216157913208008,
        -1.1161261796951294
      ],
      "type": "VEC3"
    },
    {
      "bufferView": 3,
      "byteOffset": 340596,
      "componentType": 5126,
      "count": 1483,
      "max": [
        1.0,
        1.0,
        1.0
      ],
      "min": [
        -1.0,
        -1.0,
        -1.0
      ],
      "type": "VEC3"
    },
    {
      "bufferView": 2,
      "byteOffset": 107600,
      "componentType": 5126,
      "count": 1483,
      "max": [
        0.9775000214576721,
        0.9919000267982483
      ],
      "min": [
        0.018200000748038292,
        0.04830002784729004
      ],
      "type": "VEC2"
    },
    {
      "bufferView": 1,
      "byteOffset": 254544,
      "componentType": 5125,
      "count": 6786,
      "type": "SCALAR"
    },
    {
      "bufferView": 3,
      "byteOffset": 358392,
      "componentType": 5126,
      "count": 1483,
      "max": [
        11.225210189819336,
        -9.748908042907715,
        0.9099947810173035
      ],
      "min": [
        9.475994110107422,
        -24.21615982055664,
        -1.116123080253601
      ],
      "type": "VEC3"
    },
    {
      "bufferView": 3,
      "byteOffset": 376188,
      "componentType": 5126,
      "count": 1483,
      "max": [
        1.0,
        1.0,
        1.0
      ],
      "min": [
        -1.0,
        -1.0,
        -1.0
      ],
      "type": "VEC3"
    },
    {
      "bufferView": 2,
      "byteOffset": 119464,
      "componentType": 5126,
      "count": 1483,
      "max": [
        0.9775000214576721,
        0.9919000267982483
      ],
      "min": [
        0.018200000748038292,
        0.04830002784729004
      ],
      "type": "VEC2"
    },
    {
      "bufferView": 1,
      "byteOffset": 281688,
      "componentType": 5125,
      "count": 6786,
      "type": "SCALAR"
    },
    {
      "bufferView": 3,
      "byteOffset": 393984,
      "componentType": 5126,
      "count": 1483,
      "max": [
        17.14470863342285,
        -9.748908042907715,
        0.9099975228309631
      ],
      "min": [
        15.395492553710938,
        -24.21615982055664,
        -1.1161202192306519
      ],
      "type": "VEC3"
    },
    {
      "bufferView": 3,
      "byteOffset": 411780,
      "componentType": 5126,
      "count": 1483,
      "max": [
        1.0,
        1.0,
        1.0
      ],
      "min": [
        -1.0,
        -1.0,
        -1.0
      ],
      "type": "VEC3"
    },
    {
      "bufferView": 2,
      "byteOffset": 131328,
      "componentType": 5126,
      "count": 1483,
      "max": [
        0.9775000214576721,
        0.9919000267982483
      ],
      "min": [
        0.018200000748038292,
        0.04830002784729004
      ],
      "type": "VEC2"
    },
    {
      "bufferView": 1,
      "byteOffset": 308832,
      "componentType": 5125,
      "count": 6786,
      "type": "SCALAR"
    },
    {
      "bufferView": 5,
      "componentType": 5126,
      "count": 106,
      "max": [
        1.0,
        1.0,
        0.987170934677124,
        0.0,
        0.9999999403953552,
        1.0,
        0.9999999403953552,
        0.0,
        0.9999354481697083,
        0.9890407919883728,
        1.0,
        0.0,
        22.53219223022461,
        19.796865463256836,
        16.820072174072266,
        1.0
      ],
      "min": [
        -0.970690131187439,
        -0.9965789318084717,
        -0.9999926090240479,
        0.0,
        -1.0,
        -0.9830019474029541,
        -0.7266005873680115,
        0.0,
        -0.9893489480018616,
        -1.0,
        -0.999222993850708,
        0.0,
        -16.1821346282959,
        -19.796863555908203,
        -18.130401611328125,
        1.0
      ],
      "type": "MAT4"
    },
    {
      "bufferView": 0,
      "componentType": 5123,
      "count": 9343,
      "type": "VEC4"
    },
    {
      "bufferView": 4,
      "componentType": 5126,
      "count": 9343,
      "max": [
        1.0,
        0.5,
        0.312913715839386,
        0.23375001549720764
      ],
      "min": [
        0.25961700081825256,
        0.0,
        0.0,
        0.0
      ],
      "type": "VEC4"
    },
    {
      "bufferView": 0,
      "byteOffset": 74744,
      "componentType": 5123,
      "count": 728,
      "type": "VEC4"
    },
    {
      "bufferView": 4,
      "byteOffset": 149488,
      "componentType": 5126,
      "count": 728,
      "max": [
        1.0,
        0.0,
        0.0,
        0.0
      ],
      "min": [
        1.0,
        0.0,
        0.0,
        0.0
      ],
      "type": "VEC4"
    },
    {
      "bufferView": 0,
      "byteOffset": 80568,
      "componentType": 5123,
      "count": 1483,
      "type": "VEC4"
    },
    {
      "bufferView": 4,
      "byteOffset": 161136,
      "componentType": 5126,
      "count": 1483,
      "max": [
        1.0,
        0.0,
        0.0,
        0.0
      ],
      "min": [
        1.0,
        0.0,
        0.0,
        0.0
      ],
      "type": "VEC4"
    },
    {
      "bufferView": 0,
      "byteOffset": 92432,
      "componentType": 5123,
      "count": 948,
      "type": "VEC4"
    },
    {
      "bufferView": 4,
      "byteOffset": 184864,
      "componentType": 5126,
      "count": 948,
      "max": [
        1.0,
        0.0,
        0.0,
        0.0
      ],
      "min": [
        1.0,
        0.0,
        0.0,
        0.0
      ],
      "type": "VEC4"
    },
    {
      "bufferView": 0,
      "byteOffset": 100016,
      "componentType": 5123,
      "count": 948,
      "type": "VEC4"
    },
    {
      "bufferView": 4,
      "byteOffset": 200032,
      "componentType": 5126,
      "count": 948,
      "max": [
        1.0,
        0.0,
        0.0,
        0.0
      ],
      "min": [
        1.0,
        0.0,
        0.0,
        0.0
      ],
      "type": "VEC4"
    },
    {
      "bufferView": 0,
      "byteOffset": 107600,
      "componentType": 5123,
      "count": 1483,
      "type": "VEC4"
    },
    {
      "bufferView": 4,
      "byteOffset": 215200,
      "componentType": 5126,
      "count": 1483,
      "max": [
        1.0,
        0.0,
        0.0,
        0.0
      ],
      "min": [
        1.0,
        0.0,
        0.0,
        0.0
      ],
      "type": "VEC4"
    },
    {
      "bufferView": 0,
      "byteOffset": 119464,
      "componentType": 5123,
      "count": 1483,
      "type": "VEC4"
    },
    {
      "bufferView": 4,
      "byteOffset": 238928,
      "componentType": 5126,
      "count": 1483,
      "max": [
        1.0,
        0.0,
        0.0,
        0.0
      ],
      "min": [
        1.0,
        0.0,
        0.0,
        0.0
      ],
      "type": "VEC4"
    },
    {
      "bufferView": 0,
      "byteOffset": 131328,
      "componentType": 5123,
      "count": 1483,
      "type": "VEC4"
    },
    {
      "bufferView": 4,
      "byteOffset": 262656,
      "componentType": 5126,
      "count": 1483,
      "max": [
        1.0,
        0.0,
        0.0,
        0.0
      ],
      "min": [
        1.0,
        0.0,
        0.0,
        0.0
      ],
      "type": "VEC4"
    }
  ],
  "asset": {
    "extras": {
      "author": "CAPTAAINR (https://sketchfab.com/CAPTAAINR)",
      "license": "CC-BY-4.0 (http://creativecommons.org/licenses/by/4.0/)",
      "source": "https://sketchfab.com/3d-models/iron-man-infinity-textured-rigged-7434cf03a4b34b4ca232a141fadad976",
      "title": "Iron Man (Infinity) (Textured) (Rigged)"
    },
    "generator": "Sketchfab-15.12.0",
    "version": "2.0"
  },
  "bufferViews": [
    {
      "buffer": 0,
      "byteLength": 143192,
      "byteStride": 8,
      "name": "shortBufferViews",
      "target": 34962
    },
    {
      "buffer": 0,
      "byteLength": 335976,
      "byteOffset": 143192,
      "name": "floatBufferViews",
      "target": 34963
    },
    {
      "buffer": 0,
      "byteLength": 143192,
      "byteOffset": 479168,
      "byteStride": 8,
      "name": "floatBufferViews",
      "target": 34962
    },
    {
      "buffer": 0,
      "byteLength": 429576,
      "byteOffset": 622360,
      "byteStride": 12,
      "name": "floatBufferViews",
      "target": 34962
    },
    {
      "buffer": 0,
      "byteLength": 286384,
      "byteOffset": 1051936,
      "byteStride": 16,
      "name": "floatBufferViews",
      "target": 34962
    },
    {
      "buffer": 0,
      "byteLength": 6784,
      "byteOffset": 1338320,
      "name": "floatBufferViews"
    }
  ],
  "buffers": [
    {
      "byteLength": 1345104,
      "uri": "scene.bin"
    }
  ],
  "images": [
    {
      "uri": "textures/group_0_baseColor.png"
    },
    {
      "uri": "textures/group_1_baseColor.png"
    },
    {
      "uri": "textures/group_2_baseColor.png"
    }
  ],
  "materials": [
    {
      "doubleSided": true,
      "name": "group_0",
      "pbrMetallicRoughness": {
        "baseColorTexture": {
          "index": 0
        },
        "metallicFactor": 0.0,
        "roughnessFactor": 0.8929713596497552
      }
    },
    {
      "doubleSided": true,
      "name": "group_1",
      "pbrMetallicRoughness": {
        "baseColorTexture": {
          "index": 1
        },
        "metallicFactor": 0.0,
        "roughnessFactor": 0.8929713596497552
      }
    },
    {
      "doubleSided": true,
      "name": "group_2",
      "pbrMetallicRoughness": {
        "baseColorTexture": {
          "index": 2
        },
        "metallicFactor": 0.0,
        "roughnessFactor": 0.8929713596497552
      }
    },
    {
      "doubleSided": true,
      "name": "group_3",
      "pbrMetallicRoughness": {
        "baseColorTexture": {
          "index": 2
        },
        "metallicFactor": 0.0,
        "roughnessFactor": 0.8929713596497552
      }
    },
    {
      "doubleSided": true,
      "name": "group_4",
      "pbrMetallicRoughness": {
        "baseColorTexture": {
          "index": 2
        },
        "metallicFactor": 0.0,
        "roughnessFactor": 0.8929713596497552
      }
    },
    {
      "doubleSided": true,
      "name": "group_5",
      "pbrMetallicRoughness": {
        "baseColorTexture": {
          "index": 2
        },
        "metallicFactor": 0.0,
        "roughnessFactor": 0.8929713596497552
      }
    },
    {
      "doubleSided": true,
      "name": "group_6",
      "pbrMetallicRoughness": {
        "baseColorTexture": {
          "index": 2
        },
        "metallicFactor": 0.0,
        "roughnessFactor": 0.8929713596497552
      }
    },
    {
      "doubleSided": true,
      "name": "group_7",
      "pbrMetallicRoughness": {
        "baseColorTexture": {
          "index": 2
        },
        "metallicFactor": 0.0,
        "roughnessFactor": 0.8929713596497552
      }
    }
  ],
  "meshes": [
    {
      "name": "00000028_group_0_0",
      "primitives": [
        {
          "attributes": {
            "JOINTS_0": 33,
            "NORMAL": 1,
            "POSITION": 0,
            "TEXCOORD_0": 2,
            "WEIGHTS_0": 34
          },
          "indices": 3,
          "material": 0,
          "mode": 4
        }
      ]
    },
    {
      "name": "00000028_group_1_0",
      "primitives": [
        {
          "attributes": {
            "JOINTS_0": 35,
            "NORMAL": 5,
            "POSITION": 4,
            "TEXCOORD_0": 6,
            "WEIGHTS_0": 36
          },
          "indices": 7,
          "material": 1,
          "mode": 4
        }
      ]
    },
    {
      "name": "00000028_group_2_0",
      "primitives": [
        {
          "attributes": {
            "JOINTS_0": 37,
            "NORMAL": 9,
            "POSITION": 8,
            "TEXCOORD_0": 10,
            "WEIGHTS_0": 38
          },
          "indices": 11,
          "material": 2,
          "mode": 4
        }
      ]
    },
    {
      "name": "00000028_group_3_0",
      "primitives": [
        {
          "attributes": {
            "JOINTS_0": 39,
            "NORMAL": 13,
            "POSITION": 12,
            "TEXCOORD_0": 14,
            "WEIGHTS_0": 40
          },
          "indices": 15,
          "material": 3,
          "mode": 4
        }
      ]
    },
    {
      "name": "00000028_group_4_0",
      "primitives": [
        {
          "attributes": {
            "JOINTS_0": 41,
            "NORMAL": 17,
            "POSITION": 16,
            "TEXCOORD_0": 18,
            "WEIGHTS_0": 42
          },
          "indices": 19,
          "material": 4,
          "mode": 4
        }
      ]
    },
    {
      "name": "00000028_group_5_0",
      "primitives": [
        {
          "attributes": {
            "JOINTS_0": 43,
            "NORMAL": 21,
            "POSITION": 20,
            "TEXCOORD_0": 22,
            "WEIGHTS_0": 44
          },
          "indices": 23,
          "material": 5,
          "mode": 4
        }
      ]
    },
    {
      "name": "00000028_group_6_0",
      "primitives": [
        {
          "attributes": {
            "JOINTS_0": 45,
            "NORMAL": 25,
            "POSITION": 24,
            "TEXCOORD_0": 26,
            "WEIGHTS_0": 46
          },
          "indices": 27,
          "material": 6,
          "mode": 4
        }
      ]
    },
    {
      "name": "00000028_group_7_0",
      "primitives": [
        {
          "attributes": {
            "JOINTS_0": 47,
            "NORMAL": 29,
            "POSITION": 28,
            "TEXCOORD_0": 30,
            "WEIGHTS_0": 48
          },
          "indices": 31,
          "material": 7,
          "mode": 4
        }
      ]
    }
  ],
  "nodes": [
    {
      "children": [
        1
      ],
      "matrix": [
        1.0,
        0.0,
        0.0,
        0.0,
        0.0,
        2.220446049250313e-16,
        -1.0,
        0.0,
        0.0,
        1.0,
        2.220446049250313e-16,
        0.0,
        0.0,
        0.0,
        0.0,
        1.0
      ],
      "name": "Sketchfab_model"
    },
    {
      "children": [
        2
      ],
      "matrix": [
        0.02539999969303608,
        0.0,
        0.0,
        0.0,
        0.0,
        0.0,
        0.02539999969303608,
        0.0,
        0.0,
        -0.02539999969303608,
        0.0,
        0.0,
        0.0,
        0.0,
        0.0,
        1.0
      ],
      "name": "5abae3b1704f4ae78bbf66ca76c21ede.fbx"
    },
    {
      "children": [
        3
      ],
      "name": "RootNode"
    },
    {
      "children": [
        4,
        6,
        7,
        8,
        9,
        10,
        11,
        12,
        13,
        5
      ],
      "name": "Object_3"
    },
    {
      "children": [
        14
      ],
      "name": "_rootJoint"
    },
    {
      "matrix": [
        0.9999999999999999,
        -6.878597355337163e-14,
        7.457416133997263e-14,
        0.0,
        6.878597444796783e-14,
        1.0000000028834517,
        -9.336412781779657e-09,
        0.0,
        -7.45741604827274e-14,
        9.336412727937465e-09,
        0.9999999971165482,
        0.0,
        1.5397021938842834e-12,
        -6.251489992337156e-08,
        2.1323316712340556e-07,
        1.0
      ],
      "name": "Object_5"
    },
    {
      "mesh": 0,
      "name": "Object_6",
      "skin": 0
    },
    {
      "mesh": 1,
      "name": "Object_7",
      "skin": 0
    },
    {
      "mesh": 2,
      "name": "Object_8",
      "skin": 0
    },
    {
      "mesh": 3,
      "name": "Object_9",
      "skin": 0
    },
    {
      "mesh": 4,
      "name": "Object_10",
      "skin": 0
    },
    {
      "mesh": 5,
      "name": "Object_11",
      "skin": 0
    },
    {
      "mesh": 6,
      "name": "Object_12",
      "skin": 0
    },
    {
      "mesh": 7,
      "name": "Object_13",
      "skin": 0
    },
    {
      "children": [
        15,
        96,
        101,
        102,
        103,
        108,
        113,
        118
      ],
      "name": "root_0104",
      "rotation": [
        0.0,
        -1.5099580252808664e-07,
        0.0,
        1.0
      ]
    },
    {
      "children": [
        16
      ],
      "name": "bip001_01",
      "rotation": [
        -0.0,
        0.7071062922477722,
        0.0,
        0.7071073651313782
      ],
      "scale": [
        0.9999999403953552,
        1.0,
        0.9999999403953552
      ],
      "translation": [
        1.3732685033573944e-07,
        13.909177780151367,
        0.3897007405757904
      ]
    },
    {
      "children": [
        17,
        26,
        35,
        94,
        95
      ],
      "name": "bip001 pelvis_026",
      "rotation": [
        0.4999993145465851,
        -0.5,
        -0.5,
        0.5000007152557373
      ],
      "translation": [
        -2.9802322387695313e-08,
        0.0,
        5.684341886080802e-14
      ]
    },
    {
      "children": [
        18,
        23,
        25
      ],
      "name": "bip001 l thigh_022",
      "rotation": [
        0.007508618291467428,
        0.055682796984910965,
        0.9976910948753357,
        -0.038153864443302155
      ],
      "scale": [
        0.9999999403953552,
        1.0000001192092896,
        1.0000001192092896
      ],
      "translation": [
        1.9073486328125e-06,
        1.291948676109314,
        1.2218952178955078e-06
      ]
    },
    {
      "children": [
        19,
        21,
        22
      ],
      "name": "bip001 l calf_03",
      "rotation": [
        -7.765936338444135e-09,
        -0.08345501869916916,
        -3.4541240978569476e-09,
        0.9965116381645203
      ],
      "scale": [
        0.9999997615814209,
        1.0000001192092896,
        0.9999999403953552
      ],
      "translation": [
        -6.316972732543945,
        -2.384185791015625e-07,
        2.9802322387695313e-08
      ]
    },
    {
      "children": [
        20
      ],
      "name": "bip001 l foot_020",
      "rotation": [
        0.013992946594953537,
        0.08809594810009003,
        -0.039910297840833664,
        0.9952138066291809
      ],
      "scale": [
        1.0000003576278687,
        1.0,
        0.9999998211860657
      ],
      "translation": [
        -5.815186500549316,
        -2.384185791015625e-07,
        1.1920928955078125e-07
      ]
    },
    {
      "name": "bip001 l toe0_023",
      "rotation": [
        1.04569675141164e-09,
        0.7071068286895752,
        -1.04569675141164e-09,
        0.7071068286895752
      ],
      "translation": [
        -1.7492467164993286,
        7.152557373046875e-07,
        2.3442933559417725
      ]
    },
    {
      "name": "bone l calf twist_053",
      "rotation": [
        0.007029596250504255,
        2.998489989636255e-08,
        2.5866892627846028e-08,
        0.9999753832817078
      ],
      "scale": [
        1.0000003576278687,
        1.0,
        1.0
      ],
      "translation": [
        8.881784197001252e-16,
        0.0,
        1.1920928955078125e-07
      ]
    },
    {
      "name": "bone006_067",
      "rotation": [
        -0.06552330404520035,
        0.014460482634603977,
        0.9976969361305237,
        -0.009920097887516022
      ],
      "scale": [
        1.1632393598556519,
        1.0000627040863037,
        1.0022575855255127
      ],
      "translation": [
        -3.6783015727996826,
        -0.09472465515136719,
        0.9195053577423096
      ]
    },
    {
      "children": [
        24
      ],
      "name": "bone l thigh twist_056",
      "rotation": [
        -0.03901778534054756,
        -2.481590755110119e-08,
        1.1040891223501603e-07,
        0.9992386102676392
      ],
      "scale": [
        1.000000238418579,
        0.9999998807907104,
        0.9999998211860657
      ],
      "translation": [
        -1.9073486328125e-06,
        -2.384185791015625e-07,
        5.960464477539063e-08
      ]
    },
    {
      "name": "bone l thigh twist1_057",
      "rotation": [
        0.0195125974714756,
        9.266392098083998e-09,
        -5.02198673757448e-08,
        0.9998096227645874
      ],
      "scale": [
        0.9999998211860657,
        1.0,
        0.9999998211860657
      ],
      "translation": [
        -2.922011375427246,
        2.384185791015625e-07,
        -2.9802322387695313e-08
      ]
    },
    {
      "name": "ref_bone00401_0103",
      "rotation": [
        -0.6968103051185608,
        -0.02246948517858982,
        -0.020167089998722076,
        0.7166197299957275
      ],
      "scale": [
        1.2785866260528564,
        1.0000011920928955,
        1.0007084608078003
      ],
      "translation": [
        -2.4764394760131836,
        -0.05453681945800781,
        1.6679610013961792
      ]
    },
    {
      "children": [
        27,
        32,
        34
      ],
      "name": "bip001 r thigh_047",
      "rotation": [
        0.007508590817451477,
        -0.05568419024348259,
        0.9976909756660461,
        0.03815530240535736
      ],
      "scale": [
        0.9999999403953552,
        1.0,
        1.0000001192092896
      ],
      "translation": [
        -1.9073486328125e-06,
        -1.291948676109314,
        -2.3543834686279297e-06
      ]
    },
    {
      "children": [
        28,
        30,
        31
      ],
      "name": "bip001 r calf_027",
      "rotation": [
        1.2555353201548769e-08,
        -0.08345507085323334,
        1.6004801040025995e-08,
        0.9965116381645203
      ],
      "scale": [
        1.000000238418579,
        1.0000001192092896,
        0.9999999403953552
      ],
      "translation": [
        -6.3169732093811035,
        2.384185791015625e-07,
        0.0
      ]
    },
    {
      "children": [
        29
      ],
      "name": "bip001 r foot_044",
      "rotation": [
        -0.013992938213050365,
        0.08809597790241241,
        0.039910394698381424,
        0.9952138662338257
      ],
      "scale": [
        0.9999998211860657,
        0.9999998807907104,
        1.0
      ],
      "translation": [
        -5.815185546875,
        -2.384185791015625e-07,
        2.980232238769531e-07
      ]
    },
    {
      "name": "bip001 r toe0_048",
      "rotation": [
        -1.04569675141164e-09,
        0.7071068286895752,
        1.04569675141164e-09,
        0.7071068286895752
      ],
      "translation": [
        -1.7492467164993286,
        -7.152557373046875e-07,
        2.3442935943603516
      ]
    },
    {
      "name": "bone r calf twist_060",
      "rotation": [
        -0.0070295860059559345,
        5.178616291345861e-08,
        5.2519379067916816e-08,
        0.9999753832817078
      ],
      "scale": [
        1.0000003576278687,
        1.0000001192092896,
        1.0000003576278687
      ],
      "translation": [
        4.76837158203125e-07,
        -9.5367431640625e-07,
        5.960464477539063e-08
      ]
    },
    {
      "name": "bone008_068",
      "rotation": [
        -0.06252608448266983,
        -0.7005522847175598,
        0.7093466520309448,
        -0.04630690813064575
      ],
      "scale": [
        1.0329058170318604,
        1.0000154972076416,
        1.0007576942443848
      ],
      "translation": [
        -3.6782994270324707,
        0.09472393989562988,
        0.9195003509521484
      ]
    },
    {
      "children": [
        33
      ],
      "name": "bone r thigh twist_063",
      "rotation": [
        0.03901875019073486,
        8.744602375543309e-09,
        5.686202797505757e-08,
        0.9992384910583496
      ],
      "scale": [
        0.9999999403953552,
        0.9999997615814209,
        1.0000001192092896
      ],
      "translation": [
        0.0,
        -9.5367431640625e-07,
        -1.1102230246251565e-16
      ]
    },
    {
      "name": "bone r thigh twist1_064",
      "rotation": [
        -0.01951308362185955,
        -7.77208075675162e-09,
        -3.13278150088081e-08,
        0.9998096227645874
      ],
      "scale": [
        0.9999999403953552,
        1.0000003576278687,
        1.0
      ],
      "translation": [
        -2.9220104217529297,
        1.1920928955078125e-06,
        -4.470348358154297e-08
      ]
    },
    {
      "name": "bone010_069",
      "rotation": [
        -0.7167614102363586,
        -0.020859265699982643,
        -0.023295361548662186,
        0.6966170072555542
      ],
      "scale": [
        1.5013201236724854,
        1.0000019073486328,
        1.0010888576507568
      ],
      "translation": [
        -2.4764366149902344,
        0.054538726806640625,
        1.6679576635360718
      ]
    },
    {
      "children": [
        36
      ],
      "name": "bip001 spine_050",
      "rotation": [
        1.345492592008668e-06,
        2.165409718202227e-08,
        -6.854104981357523e-07,
        1.0
      ],
      "scale": [
        1.0,
        1.0,
        1.0000001192092896
      ],
      "translation": [
        -1.3116846084594727,
        1.6419908206444234e-06,
        0.05297583341598511
      ]
    },
    {
      "children": [
        37
      ],
      "name": "bip001 spine1_051",
      "rotation": [
        -5.774081768272765e-10,
        0.0007153447368182242,
        2.9872662565821884e-08,
        0.9999997615814209
      ],
      "translation": [
        -1.287764549255371,
        -2.9491289410543686e-09,
        -0.001062840223312378
      ]
    },
    {
      "children": [
        38,
        63,
        65,
        90,
        91,
        92,
        93
      ],
      "name": "bip001 spine2_052",
      "rotation": [
        -9.043687576593129e-09,
        -0.03775336965918541,
        1.3420222444437968e-07,
        0.9992870688438416
      ],
      "scale": [
        0.9999999403953552,
        1.0,
        0.9999999403953552
      ],
      "translation": [
        -1.3345832824707031,
        -6.533696250698995e-09,
        -0.0023422539234161377
      ]
    },
    {
      "children": [
        39
      ],
      "name": "bip001 l clavicle_04",
      "rotation": [
        -0.6471607685089111,
        0.7566101551055908,
        -0.07123532891273499,
        -0.060413558036088943
      ],
      "scale": [
        0.9999998807907104,
        1.0000001192092896,
        1.0
      ],
      "translation": [
        -2.277050018310547,
        0.3114872872829437,
        -0.17970550060272217
      ]
    },
    {
      "children": [
        40,
        60,
        62
      ],
      "name": "bip001 l upperarm_024",
      "rotation": [
        -0.13756796717643738,
        -0.10106424242258072,
        0.4283224046230316,
        0.887356162071228
      ],
      "scale": [
        1.0000005960464478,
        1.0000009536743164,
        1.0
      ],
      "translation": [
        -2.6571524143218994,
        1.9073486328125e-06,
        1.1920928955078125e-07
      ]
    },
    {
      "children": [
        41,
        57,
        59
      ],
      "name": "bip001 l forearm_021",
      "rotation": [
        -3.069727938509459e-08,
        -0.15827733278274536,
        -9.735548189837573e-08,
        0.9873946905136108
      ],
      "scale": [
        0.9999994039535522,
        1.0000001192092896,
        0.9999998211860657
      ],
      "translation": [
        -3.0440635681152344,
        0.0,
        1.1920928955078125e-07
      ]
    },
    {
      "children": [
        42,
        45,
        48,
        51,
        54
      ],
      "name": "bip001 l hand_00",
      "rotation": [
        0.6390531063079834,
        0.11076656728982925,
        0.12542051076889038,
        0.7507407069206238
      ],
      "scale": [
        0.9999988675117493,
        0.9999998807907104,
        1.000000238418579
      ],
      "translation": [
        -3.601304054260254,
        -9.5367431640625e-07,
        4.76837158203125e-07
      ]
    },
    {
      "children": [
        43
      ],
      "name": "bip001 l finger0_05",
      "rotation": [
        -0.669109046459198,
        -0.03550706431269646,
        0.3884536027908325,
        0.6325631141662598
      ],
      "scale": [
        0.9999998807907104,
        0.9999997615814209,
        0.999999463558197
      ],
      "translation": [
        -0.4454364776611328,
        -0.836846113204956,
        0.123199462890625
      ]
    },
    {
      "children": [
        44
      ],
      "name": "bip001 l finger01_06",
      "rotation": [
        1.2613128319571842e-07,
        0.14029477536678314,
        -4.044733259433997e-08,
        0.9901098012924194
      ],
      "scale": [
        0.9999998807907104,
        1.0,
        1.0000001192092896
      ],
      "translation": [
        -0.4751901626586914,
        -2.384185791015625e-07,
        9.5367431640625e-07
      ]
    },
    {
      "name": "bip001 l finger02_07",
      "rotation": [
        1.6652900569624762e-07,
        0.22567500174045563,
        -1.2461521237128181e-07,
        0.9742027521133423
      ],
      "scale": [
        1.0000001192092896,
        0.9999998807907104,
        0.9999999403953552
      ],
      "translation": [
        -0.5505886077880859,
        2.384185791015625e-07,
        9.5367431640625e-07
      ]
    },
    {
      "children": [
        46
      ],
      "name": "bip001 l finger1_08",
      "rotation": [
        0.03901754319667816,
        0.13230575621128082,
        -0.04106299579143524,
        0.9895891547203064
      ],
      "scale": [
        1.0000005960464478,
        1.0000004768371582,
        0.9999995231628418
      ],
      "translation": [
        -1.4933948516845703,
        -0.5836198329925537,
        -0.19770336151123047
      ]
    },
    {
      "children": [
        47
      ],
      "name": "bip001 l finger11_09",
      "rotation": [
        -3.065121347844979e-07,
        0.13487184047698975,
        3.7362718785516336e-07,
        0.9908631443977356
      ],
      "scale": [
        0.9999999403953552,
        0.9999998807907104,
        0.9999998807907104
      ],
      "translation": [
        -0.5501575469970703,
        -4.76837158203125e-07,
        0.0
      ]
    },
    {
      "name": "bip001 l finger12_010",
      "rotation": [
        -2.3076501065588673e-07,
        0.01982947438955307,
        3.632066238878906e-07,
        0.999803364276886
      ],
      "scale": [
        1.0,
        1.0,
        0.9999998211860657
      ],
      "translation": [
        -0.44577884674072266,
        -4.76837158203125e-07,
        -7.152557373046875e-07
      ]
    },
    {
      "children": [
        49
      ],
      "name": "bip001 l finger2_011",
      "rotation": [
        0.084209144115448,
        0.1318662017583847,
        -0.048735566437244415,
        0.9864811301231384
      ],
      "scale": [
        0.9999999403953552,
        0.9999998211860657,
        0.999999463558197
      ],
      "translation": [
        -1.4602165222167969,
        -0.14235413074493408,
        -0.1208639144897461
      ]
    },
    {
      "children": [
        50
      ],
      "name": "bip001 l finger21_012",
      "rotation": [
        -1.6525460466709774e-07,
        0.12162607908248901,
        1.2346134781182627e-07,
        0.992576003074646
      ],
      "scale": [
        1.0,
        1.0000001192092896,
        0.9999998211860657
      ],
      "translation": [
        -0.6573810577392578,
        -2.384185791015625e-07,
        -8.881784197001252e-16
      ]
    },
    {
      "name": "bip001 l finger22_013",
      "rotation": [
        -1.8164440973578166e-07,
        0.023145640268921852,
        1.2018615791475895e-07,
        0.9997321963310242
      ],
      "scale": [
        1.0,
        1.0,
        0.9999999403953552
      ],
      "translation": [
        -0.4414558410644531,
        0.0,
        -4.76837158203125e-07
      ]
    },
    {
      "children": [
        52
      ],
      "name": "bip001 l finger3_014",
      "rotation": [
        0.11158056557178497,
        0.16333696246147156,
        -0.050025612115859985,
        0.9789628386497498
      ],
      "scale": [
        1.0000005960464478,
        1.0,
        0.9999996423721313
      ],
      "translation": [
        -1.4273691177368164,
        0.3174104690551758,
        -0.07544231414794922
      ]
    },
    {
      "children": [
        53
      ],
      "name": "bip001 l finger31_015",
      "rotation": [
        0.001329601276665926,
        0.07267075777053833,
        0.004354208707809448,
        0.9973456859588623
      ],
      "scale": [
        1.0,
        0.9999999403953552,
        0.9999999403953552
      ],
      "translation": [
        -0.530919075012207,
        3.5762786865234375e-07,
        -4.76837158203125e-07
      ]
    },
    {
      "name": "bip001 l finger32_016",
      "rotation": [
        -2.3001108218068111e-07,
        0.053975049406290054,
        -1.6197863317302108e-07,
        0.998542308807373
      ],
      "scale": [
        1.0,
        0.9999999403953552,
        0.9999999403953552
      ],
      "translation": [
        -0.42284488677978516,
        2.384185791015625e-07,
        -2.384185791015625e-07
      ]
    },
    {
      "children": [
        55
      ],
      "name": "bip001 l finger4_017",
      "rotation": [
        0.12062197178602219,
        0.14279687404632568,
        -0.06638961285352707,
        0.9801284670829773
      ],
      "scale": [
        0.9999996423721313,
        1.0000001192092896,
        0.9999998211860657
      ],
      "translation": [
        -1.4094581604003906,
        0.6759304404258728,
        0.048081398010253906
      ]
    },
    {
      "children": [
        56
      ],
      "name": "bip001 l finger41_018",
      "rotation": [
        -4.264184738644872e-08,
        0.11924214661121368,
        4.264184383373504e-08,
        0.9928652048110962
      ],
      "translation": [
        -0.3495969772338867,
        -1.1920928955078125e-07,
        -8.881784197001252e-16
      ]
    },
    {
      "name": "bip001 l finger42_019",
      "rotation": [
        -7.470621454785942e-08,
        0.019683290272951126,
        9.446742943453046e-09,
        0.99980628490448
      ],
      "translation": [
        -0.37169933319091797,
        5.960464477539063e-08,
        6.661338147750939e-16
      ]
    },
    {
      "children": [
        58
      ],
      "name": "bone l forearm twist_054",
      "rotation": [
        -0.04008445516228676,
        7.982166749798125e-08,
        -1.3101613660637668e-07,
        0.9991962909698486
      ],
      "scale": [
        1.0,
        1.0000001192092896,
        0.9999998807907104
      ],
      "translation": [
        9.5367431640625e-07,
        -2.86102294921875e-06,
        -1.1920928955078125e-06
      ]
    },
    {
      "name": "bone l forearm twist1_055",
      "rotation": [
        -0.04008439928293228,
        4.927760421935545e-09,
        -1.228358144089725e-07,
        0.9991962909698486
      ],
      "scale": [
        0.9999998211860657,
        0.9999999403953552,
        0.9999997615814209
      ],
      "translation": [
        -1.8006534576416016,
        9.5367431640625e-07,
        4.76837158203125e-07
      ]
    },
    {
      "name": "bone013_071",
      "rotation": [
        -0.06639862060546875,
        -0.6699575781822205,
        0.7387170791625977,
        -0.03233076632022858
      ],
      "scale": [
        1.062804937362671,
        1.0000998973846436,
        1.0011719465255737
      ],
      "translation": [
        -2.459566116333008,
        0.21276092529296875,
        0.9038015604019165
      ]
    },
    {
      "children": [
        61
      ],
      "name": "bone l upperarm twist_058",
      "rotation": [
        0.07682762295007706,
        4.079702975445798e-08,
        -5.241650313791979e-08,
        0.9970443844795227
      ],
      "scale": [
        1.0000004768371582,
        1.0000001192092896,
        1.0000003576278687
      ],
      "translation": [
        -1.7763568394002505e-15,
        1.7763568394002505e-15,
        1.1920928955078125e-07
      ]
    },
    {
      "name": "bone l upperarm twist1_059",
      "rotation": [
        -0.038442254066467285,
        1.7934679519271413e-08,
        1.8339930463184828e-08,
        0.9992608428001404
      ],
      "scale": [
        1.0,
        0.9999999403953552,
        0.9999999403953552
      ],
      "translation": [
        -1.5220365524291992,
        0.0,
        2.682209014892578e-07
      ]
    },
    {
      "name": "bone012_070",
      "rotation": [
        -0.7388988733291626,
        0.057864703238010406,
        0.053045716136693954,
        0.6692280769348145
      ],
      "scale": [
        1.0113893747329712,
        1.000002384185791,
        1.0002787113189697
      ],
      "translation": [
        -0.8301601409912109,
        0.11085128784179688,
        1.1258671283721924
      ]
    },
    {
      "children": [
        64
      ],
      "name": "bip001 neck_025",
      "rotation": [
        5.409017234114799e-09,
        0.1531919240951538,
        -4.002824596227583e-07,
        0.9881965517997742
      ],
      "scale": [
        0.9999998807907104,
        1.0,
        0.9999999403953552
      ],
      "translation": [
        -3.763082504272461,
        -6.746327017026488e-07,
        -0.3955317735671997
      ]
    },
    {
      "name": "bip001 head_02",
      "rotation": [
        7.58398584821407e-07,
        -0.04185169190168381,
        1.4391929425983108e-07,
        0.9991239309310913
      ],
      "translation": [
        -1.2687454223632813,
        -5.432239049696364e-07,
        0.2722296714782715
      ]
    },
    {
      "children": [
        66
      ],
      "name": "bip001 r clavicle_028",
      "rotation": [
        0.6471608877182007,
        0.7566102147102356,
        0.07123321294784546,
        -0.060411740094423294
      ],
      "scale": [
        0.9999999403953552,
        1.0,
        0.9999999403953552
      ],
      "translation": [
        -2.277050018310547,
        -0.3114883005619049,
        -0.17970383167266846
      ]
    },
    {
      "children": [
        67,
        87,
        89
      ],
      "name": "bip001 r upperarm_049",
      "rotation": [
        0.1375671625137329,
        -0.10106304287910461,
        -0.4283224940299988,
        0.8873565196990967
      ],
      "scale": [
        1.000000238418579,
        1.000000238418579,
        0.9999998807907104
      ],
      "translation": [
        -2.6571524143218994,
        0.0,
        2.384185791015625e-07
      ]
    },
    {
      "children": [
        68,
        84,
        86
      ],
      "name": "bip001 r forearm_045",
      "rotation": [
        -3.904827750034201e-08,
        -0.1582772433757782,
        -5.5306379920239124e-08,
        0.9873946905136108
      ],
      "scale": [
        0.9999998211860657,
        1.0,
        1.0
      ],
      "translation": [
        -3.0440635681152344,
        -3.552713678800501e-15,
        1.1920928955078125e-07
      ]
    },
    {
      "children": [
        69,
        72,
        75,
        78,
        81
      ],
      "name": "bip001 r hand_046",
      "rotation": [
        -0.6390531063079834,
        0.11076663434505463,
        -0.12542054057121277,
        0.7507407069206238
      ],
      "scale": [
        0.9999997019767761,
        1.0,
        1.0000001192092896
      ],
      "translation": [
        -3.6013011932373047,
        0.0,
        4.76837158203125e-07
      ]
    },
    {
      "children": [
        70
      ],
      "name": "bip001 r finger0_029",
      "rotation": [
        0.6691091060638428,
        -0.035507068037986755,
        -0.3884536325931549,
        0.632563054561615
      ],
      "scale": [
        0.9999998211860657,
        0.9999997615814209,
        0.9999995231628418
      ],
      "translation": [
        -0.4454355239868164,
        0.8368464708328247,
        0.123199462890625
      ]
    },
    {
      "children": [
        71
      ],
      "name": "bip001 r finger01_030",
      "rotation": [
        -2.072755762583256e-07,
        0.14029482007026672,
        8.204519019727741e-08,
        0.9901098012924194
      ],
      "scale": [
        0.9999999403953552,
        1.0,
        1.0000001192092896
      ],
      "translation": [
        -0.475189208984375,
        2.384185791015625e-07,
        -9.5367431640625e-07
      ]
    },
    {
      "name": "bip001 r finger02_031",
      "rotation": [
        -2.571730419731466e-07,
        0.22567500174045563,
        1.8576433546968474e-07,
        0.9742027521133423
      ],
      "scale": [
        0.9999999403953552,
        1.0,
        0.9999999403953552
      ],
      "translation": [
        -0.5505905151367188,
        2.384185791015625e-07,
        4.76837158203125e-07
      ]
    },
    {
      "children": [
        73
      ],
      "name": "bip001 r finger1_032",
      "rotation": [
        -0.039017532020807266,
        0.13230575621128082,
        0.041063033044338226,
        0.9895891547203064
      ],
      "scale": [
        1.0000005960464478,
        1.0000004768371582,
        0.9999995231628418
      ],
      "translation": [
        -1.493393898010254,
        0.5836195945739746,
        -0.19770431518554688
      ]
    },
    {
      "children": [
        74
      ],
      "name": "bip001 r finger11_033",
      "rotation": [
        3.533593542215385e-07,
        0.13487179577350616,
        -3.863481765620236e-07,
        0.9908630847930908
      ],
      "scale": [
        0.9999999403953552,
        1.0,
        0.9999998211860657
      ],
      "translation": [
        -0.5501585006713867,
        2.384185791015625e-07,
        0.0
      ]
    },
    {
      "name": "bip001 r finger12_034",
      "rotation": [
        2.6069577074849803e-07,
        0.01982944644987583,
        -3.6938925518370525e-07,
        0.999803364276886
      ],
      "scale": [
        0.9999999403953552,
        0.9999999403953552,
        1.0
      ],
      "translation": [
        -0.44577693939208984,
        8.344650268554688e-07,
        -4.76837158203125e-07
      ]
    },
    {
      "children": [
        76
      ],
      "name": "bip001 r finger2_035",
      "rotation": [
        -0.08420910686254501,
        0.1318662017583847,
        0.048735592514276505,
        0.9864811301231384
      ],
      "scale": [
        1.0,
        0.9999998807907104,
        0.9999995231628418
      ],
      "translation": [
        -1.4602155685424805,
        0.14235401153564453,
        -0.1208648681640625
      ]
    },
    {
      "children": [
        77
      ],
      "name": "bip001 r finger21_036",
      "rotation": [
        1.4966295225349313e-07,
        0.12162604928016663,
        -1.1873596150735466e-07,
        0.992576003074646
      ],
      "scale": [
        0.9999998807907104,
        1.0,
        0.9999998211860657
      ],
      "translation": [
        -0.6573810577392578,
        3.5762786865234375e-07,
        8.881784197001252e-16
      ]
    },
    {
      "name": "bip001 r finger22_037",
      "rotation": [
        1.8137464508072298e-07,
        0.023145582526922226,
        -1.08535218146244e-07,
        0.9997321963310242
      ],
      "scale": [
        1.0,
        1.0,
        1.0000001192092896
      ],
      "translation": [
        -0.4414539337158203,
        1.1920928955078125e-07,
        -9.5367431640625e-07
      ]
    },
    {
      "children": [
        79
      ],
      "name": "bip001 r finger3_038",
      "rotation": [
        -0.11158056557178497,
        0.16333693265914917,
        0.05002562329173088,
        0.9789628386497498
      ],
      "scale": [
        1.0000005960464478,
        1.0000001192092896,
        0.9999995827674866
      ],
      "translation": [
        -1.4273672103881836,
        -0.317410409450531,
        -0.07544136047363281
      ]
    },
    {
      "children": [
        80
      ],
      "name": "bip001 r finger31_039",
      "rotation": [
        -0.001329614664427936,
        0.07267069816589355,
        -0.00435422919690609,
        0.9973456263542175
      ],
      "scale": [
        1.0,
        0.9999998807907104,
        1.0
      ],
      "translation": [
        -0.5309181213378906,
        -2.384185791015625e-07,
        -4.76837158203125e-07
      ]
    },
    {
      "name": "bip001 r finger32_040",
      "rotation": [
        2.082689860571918e-07,
        0.053974978625774384,
        1.5009631226803322e-07,
        0.998542308807373
      ],
      "translation": [
        -0.42284584045410156,
        -1.1920928955078125e-07,
        -9.5367431640625e-07
      ]
    },
    {
      "children": [
        82
      ],
      "name": "bip001 r finger4_041",
      "rotation": [
        -0.1206219494342804,
        0.1427968591451645,
        0.06638961285352707,
        0.9801284670829773
      ],
      "scale": [
        0.9999997019767761,
        1.0000001192092896,
        0.9999998807907104
      ],
      "translation": [
        -1.4094572067260742,
        -0.6759307384490967,
        0.0480804443359375
      ]
    },
    {
      "children": [
        83
      ],
      "name": "bip001 r finger41_042",
      "rotation": [
        1.5615176707228784e-08,
        0.1192421093583107,
        -6.753641912382591e-08,
        0.9928652048110962
      ],
      "translation": [
        -0.3495979309082031,
        0.0,
        0.0
      ]
    },
    {
      "name": "bip001 r finger42_043",
      "rotation": [
        3.789029179301906e-08,
        0.01968323439359665,
        -3.20095168149237e-08,
        0.99980628490448
      ],
      "scale": [
        0.9999999403953552,
        1.0,
        1.0
      ],
      "translation": [
        -0.37169837951660156,
        -2.220446049250313e-16,
        8.881784197001252e-16
      ]
    },
    {
      "children": [
        85
      ],
      "name": "bone r forearm twist_061",
      "rotation": [
        0.04008447378873825,
        8.72445440336378e-08,
        -5.569598116039742e-08,
        0.9991962909698486
      ],
      "scale": [
        1.0000001192092896,
        1.0000001192092896,
        0.9999998211860657
      ],
      "translation": [
        9.5367431640625e-07,
        1.7763568394002505e-15,
        7.152557373046875e-07
      ]
    },
    {
      "name": "bone r forearm twist1_062",
      "rotation": [
        0.040084388107061386,
        7.265401080758238e-08,
        -4.7654076240633e-08,
        0.9991962909698486
      ],
      "scale": [
        0.9999998807907104,
        1.0,
        1.0
      ],
      "translation": [
        -1.8006525039672852,
        9.5367431640625e-07,
        4.76837158203125e-07
      ]
    },
    {
      "name": "bone018_073",
      "rotation": [
        0.03949619457125664,
        0.7385622262954712,
        -0.6690976619720459,
        0.0726240798830986
      ],
      "scale": [
        1.0245397090911865,
        1.0000369548797607,
        1.0006237030029297
      ],
      "translation": [
        -2.4724349975585938,
        -0.21106624603271484,
        0.8330338001251221
      ]
    },
    {
      "children": [
        88
      ],
      "name": "bone r upperarm twist_065",
      "rotation": [
        -0.07682713121175766,
        4.995237645744055e-08,
        -4.2154518098413973e-08,
        0.9970444440841675
      ],
      "scale": [
        1.000000238418579,
        0.9999998807907104,
        1.0000003576278687
      ],
      "translation": [
        1.7763568394002505e-15,
        -1.7763568394002505e-15,
        1.1920928955078125e-07
      ]
    },
    {
      "name": "bone r upperarm twist1_066",
      "rotation": [
        0.0384419821202755,
        4.579200307830433e-08,
        -1.6637821431686461e-07,
        0.9992608428001404
      ],
      "scale": [
        0.9999998807907104,
        0.9999997615814209,
        1.0
      ],
      "translation": [
        -1.5220327377319336,
        3.814697265625e-06,
        6.258487701416016e-07
      ]
    },
    {
      "name": "bone016_072",
      "rotation": [
        -0.6691725254058838,
        0.05324168503284454,
        0.05797972530126572,
        0.738926112651825
      ],
      "scale": [
        1.0135149955749512,
        1.0000030994415283,
        1.000331997871399
      ],
      "translation": [
        -0.8301506042480469,
        -0.11084461212158203,
        1.1256638765335083
      ]
    },
    {
      "name": "bone_weap01_098",
      "rotation": [
        -0.3874170780181885,
        -0.4876108169555664,
        0.3992732763290405,
        0.672848105430603
      ],
      "scale": [
        1.0,
        1.000000238418579,
        1.0000003576278687
      ],
      "translation": [
        -1.3107280731201172,
        -0.5720282196998596,
        -2.69411563873291
      ]
    },
    {
      "name": "bone_weap02_099",
      "rotation": [
        0.4197305142879486,
        0.5866895318031311,
        -0.5146989822387695,
        -0.46336454153060913
      ],
      "scale": [
        0.9999998211860657,
        1.0000001192092896,
        0.9999998211860657
      ],
      "translation": [
        -0.1900501251220703,
        -1.0710200071334839,
        -2.567920207977295
      ]
    },
    {
      "name": "bone_weap03_0100",
      "rotation": [
        0.38742098212242126,
        -0.4876076579093933,
        -0.3992687165737152,
        0.6728508472442627
      ],
      "scale": [
        0.9999999403953552,
        1.0000001192092896,
        1.0
      ],
      "translation": [
        -1.310739517211914,
        0.5721530914306641,
        -2.6941146850585938
      ]
    },
    {
      "name": "bone_weap04_0101",
      "rotation": [
        -0.41973504424095154,
        0.5866861939430237,
        0.514695942401886,
        -0.46336793899536133
      ],
      "scale": [
        1.0000001192092896,
        1.0000001192092896,
        1.000000238418579
      ],
      "translation": [
        -0.1900653839111328,
        1.0707608461380005,
        -2.5679194927215576
      ]
    },
    {
      "name": "bone1802_074",
      "rotation": [
        -0.18695075809955597,
        0.7401641011238098,
        0.6454773545265198,
        0.02378358691930771
      ],
      "scale": [
        1.0982286930084229,
        1.0061408281326294,
        1.0075440406799316
      ],
      "translation": [
        -1.5676631927490234,
        0.5170542597770691,
        -2.6983962059020996
      ]
    },
    {
      "name": "bone1802(mirrored)_075",
      "rotation": [
        -0.011027766391634941,
        0.6446951031684875,
        0.7464929223060608,
        0.16430136561393738
      ],
      "scale": [
        1.0252529382705688,
        1.0014598369598389,
        1.0014169216156006
      ],
      "translation": [
        -1.567291259765625,
        -0.521692156791687,
        -2.6369032859802246
      ]
    },
    {
      "children": [
        97,
        99
      ],
      "name": "bone180206_080",
      "rotation": [
        0.5028327107429504,
        0.5028327107429504,
        0.4971512258052826,
        -0.49715104699134827
      ],
      "translation": [
        -3.2086658477783203,
        -16.827348709106445,
        -0.5448335409164429
      ]
    },
    {
      "children": [
        98
      ],
      "name": "bone180202_076",
      "rotation": [
        1.518830856639397e-07,
        -0.7301037907600403,
        1.844002355255725e-07,
        0.6833362579345703
      ],
      "scale": [
        0.9999999403953552,
        1.0,
        0.9999999403953552
      ],
      "translation": [
        0.09060484170913696,
        -0.003634929656982422,
        -1.0112247467041016
      ]
    },
    {
      "name": "bone180203_077",
      "rotation": [
        -7.504316812401157e-08,
        -0.08725310117006302,
        -6.5728076314997e-09,
        0.9961861968040466
      ],
      "translation": [
        -2.677835464477539,
        2.384185791015625e-07,
        1.5497207641601563e-06
      ]
    },
    {
      "children": [
        100
      ],
      "name": "bone180204_078",
      "rotation": [
        3.2137646144292376e-07,
        0.7452530860900879,
        -2.936424436938978e-07,
        0.6667817234992981
      ],
      "translation": [
        0.040058135986328125,
        0.0016603469848632813,
        0.615264892578125
      ]
    },
    {
      "name": "bone180205_079",
      "rotation": [
        -5.754292828896723e-07,
        0.10331888496875763,
        5.977260997269696e-08,
        0.994648277759552
      ],
      "scale": [
        0.9999999403953552,
        1.0,
        1.0
      ],
      "translation": [
        -2.852400779724121,
        0.0,
        -6.556510925292969e-06
      ]
    },
    {
      "name": "bone180207_081",
      "rotation": [
        -0.5009610652923584,
        -0.49903708696365356,
        0.4990370571613312,
        0.5009610652923584
      ],
      "translation": [
        -8.841913223266602,
        -16.509593963623047,
        2.2610852283833083e-06
      ]
    },
    {
      "name": "bone180208_082",
      "rotation": [
        -0.5009610652923584,
        -0.49903708696365356,
        0.4990370571613312,
        0.5009610652923584
      ],
      "translation": [
        -16.196012496948242,
        -16.481294631958008,
        -6.159059557830915e-05
      ]
    },
    {
      "children": [
        104,
        106
      ],
      "name": "bone180209_083",
      "rotation": [
        0.5028327107429504,
        0.5028327107429504,
        0.4971512258052826,
        -0.49715104699134827
      ],
      "translation": [
        3.3362045288085938,
        -16.827348709106445,
        -0.5448324680328369
      ]
    },
    {
      "children": [
        105
      ],
      "name": "bone180210_084",
      "rotation": [
        1.518830856639397e-07,
        -0.7301037907600403,
        1.844002355255725e-07,
        0.6833362579345703
      ],
      "scale": [
        0.9999999403953552,
        1.0,
        0.9999999403953552
      ],
      "translation": [
        0.09060484170913696,
        -0.003634929656982422,
        -1.0112247467041016
      ]
    },
    {
      "name": "bone180211_085",
      "rotation": [
        -7.504316812401157e-08,
        -0.08725310117006302,
        -6.5728076314997e-09,
        0.9961861968040466
      ],
      "translation": [
        -2.677835464477539,
        2.384185791015625e-07,
        1.5497207641601563e-06
      ]
    },
    {
      "children": [
        107
      ],
      "name": "bone180212_086",
      "rotation": [
        3.2137646144292376e-07,
        0.7452530860900879,
        -2.936424436938978e-07,
        0.6667817234992981
      ],
      "translation": [
        0.040058135986328125,
        0.0016603469848632813,
        0.615264892578125
      ]
    },
    {
      "name": "bone180213_087",
      "rotation": [
        -5.754292828896723e-07,
        0.10331888496875763,
        5.977260997269696e-08,
        0.994648277759552
      ],
      "scale": [
        0.9999999403953552,
        1.0,
        1.0
      ],
      "translation": [
        -2.852400779724121,
        0.0,
        -6.67572021484375e-06
      ]
    },
    {
      "children": [
        109,
        111
      ],
      "name": "bone180214_088",
      "rotation": [
        0.5028327107429504,
        0.5028327107429504,
        0.4971512258052826,
        -0.49715104699134827
      ],
      "translation": [
        10.358024597167969,
        -16.827350616455078,
        -0.5448313355445862
      ]
    },
    {
      "children": [
        110
      ],
      "name": "bone180215_089",
      "rotation": [
        1.518830856639397e-07,
        -0.7301037907600403,
        1.844002355255725e-07,
        0.6833362579345703
      ],
      "scale": [
        0.9999999403953552,
        1.0,
        0.9999999403953552
      ],
      "translation": [
        0.09060484170913696,
        -0.003635406494140625,
        -1.0112247467041016
      ]
    },
    {
      "name": "bone180216_090",
      "rotation": [
        -7.504316812401157e-08,
        -0.08725310117006302,
        -6.5728076314997e-09,
        0.9961861968040466
      ],
      "translation": [
        -2.677835464477539,
        9.5367431640625e-07,
        1.6689300537109375e-06
      ]
    },
    {
      "children": [
        112
      ],
      "name": "bone180217_091",
      "rotation": [
        3.2137646144292376e-07,
        0.7452530860900879,
        -2.936424436938978e-07,
        0.6667817234992981
      ],
      "translation": [
        0.040058135986328125,
        0.0016603469848632813,
        0.615264892578125
      ]
    },
    {
      "name": "bone180218_092",
      "rotation": [
        -5.754292828896723e-07,
        0.10331888496875763,
        5.977260997269696e-08,
        0.994648277759552
      ],
      "scale": [
        0.9999999403953552,
        1.0,
        1.0
      ],
      "translation": [
        -2.8524017333984375,
        0.0,
        -6.556510925292969e-06
      ]
    },
    {
      "children": [
        114,
        116
      ],
      "name": "bone180219_093",
      "rotation": [
        0.5028327107429504,
        0.5028327107429504,
        0.4971512258052826,
        -0.49715104699134827
      ],
      "translation": [
        16.277523040771484,
        -16.827350616455078,
        -0.5448303818702698
      ]
    },
    {
      "children": [
        115
      ],
      "name": "bone180220_094",
      "rotation": [
        1.518830856639397e-07,
        -0.7301037907600403,
        1.844002355255725e-07,
        0.6833362579345703
      ],
      "scale": [
        0.9999999403953552,
        1.0,
        0.9999999403953552
      ],
      "translation": [
        0.09060478210449219,
        -0.0036334991455078125,
        -1.0112247467041016
      ]
    },
    {
      "name": "bone180221_095",
      "rotation": [
        -7.504316812401157e-08,
        -0.08725310117006302,
        -6.5728076314997e-09,
        0.9961861968040466
      ],
      "translation": [
        -2.677835464477539,
        0.0,
        1.6689300537109375e-06
      ]
    },
    {
      "children": [
        117
      ],
      "name": "bone180222_096",
      "rotation": [
        3.2137646144292376e-07,
        0.7452530860900879,
        -2.936424436938978e-07,
        0.6667817234992981
      ],
      "translation": [
        0.040058135986328125,
        0.0016613006591796875,
        0.615264892578125
      ]
    },
    {
      "name": "bone180223_097",
      "rotation": [
        -5.754292828896723e-07,
        0.10331888496875763,
        5.977260997269696e-08,
        0.994648277759552
      ],
      "scale": [
        0.9999999403953552,
        1.0,
        1.0
      ],
      "translation": [
        -2.8524017333984375,
        3.552713678800501e-15,
        -6.556510925292969e-06
      ]
    },
    {
      "name": "camera_0102",
      "rotation": [
        -2.7107554956273816e-07,
        1.0,
        1.6155402704498556e-07,
        -2.5629597644183377e-07
      ],
      "scale": [
        0.9999990463256836,
        0.9999988675117493,
        1.0000004768371582
      ],
      "translation": [
        -1.9031176634598523e-07,
        0.0,
        0.0
      ]
    }
  ],
  "samplers": [
    {
      "magFilter": 9729,
      "minFilter": 9987,
      "wrapS": 10497,
      "wrapT": 10497
    }
  ],
  "scene": 0,
  "scenes": [
    {
      "name": "Sketchfab_Scene",
      "nodes": [
        0
      ]
    }
  ],
  "skins": [
    {
      "inverseBindMatrices": 32,
      "joints": [
        4,
        14,
        15,
        16,
        17,
        18,
        19,
        20,
        21,
        22,
        23,
        24,
        25,
        26,
        27,
        28,
        29,
        30,
        31,
        32,
        33,
        34,
        35,
        36,
        37,
        38,
        39,
        40,
        41,
        42,
        43,
        44,
        45,
        46,
        47,
        48,
        49,
        50,
        51,
        52,
        53,
        54,
        55,
        56,
        57,
        58,
        59,
        60,
        61,
        62,
        63,
        64,
        65,
        66,
        67,
        68,
        69,
        70,
        71,
        72,
        73,
        74,
        75,
        76,
        77,
        78,
        79,
        80,
        81,
        82,
        83,
        84,
        85,
        86,
        87,
        88,
        89,
        90,
        91,
        92,
        93,
        94,
        95,
        96,
        97,
        98,
        99,
        100,
        101,
        102,
        103,
        104,
        105,
        106,
        107,
        108,
        109,
        110,
        111,
        112,
        113,
        114,
        115,
        116,
        117,
        118
      ],
      "skeleton": 4
    }
  ],
  "textures": [
    {
      "sampler": 0,
      "source": 0
    },
    {
      "sampler": 0,
      "source": 1
    },
    {
      "sampler": 0,
      "source": 2
    }
  ]
}
